<svg width="222" height="64" viewBox="0 0 222 64" fill="none" xmlns="http://www.w3.org/2000/svg">
<g clip-path="url(#clip0_49_3205)">
<path d="M82.7735 14.044V23.2439C82.7735 23.7538 82.6995 24.1363 82.5514 24.3872C82.3335 24.7408 81.9921 24.9177 81.5274 24.9177C81.0627 24.9177 80.6967 24.7408 80.5034 24.3872C80.3553 24.1363 80.2813 23.7538 80.2813 23.2439V14.4717C80.2813 13.0035 79.9235 11.8931 79.2079 11.1364C78.4923 10.3797 77.4765 10.0013 76.1687 10.0013C74.8609 10.0013 73.8328 10.3838 73.0884 11.1529C72.344 11.9219 71.9698 13.0282 71.9698 14.4717V23.2439C71.9698 23.7538 71.8957 24.1363 71.7477 24.3872C71.5297 24.7408 71.1884 24.9177 70.7237 24.9177C70.2589 24.9177 69.9176 24.7408 69.6996 24.3872C69.5516 24.1363 69.4775 23.7538 69.4775 23.2439V9.52429C69.4775 9.00199 69.5516 8.61952 69.6996 8.38099C69.9176 8.02731 70.2589 7.85047 70.7237 7.85047C71.1884 7.85047 71.5297 8.02731 71.7477 8.38099C71.8957 8.61952 71.9698 9.00199 71.9698 9.52429V9.83273C73.1994 8.46736 74.7704 7.78467 76.6787 7.78467C78.5869 7.78467 79.9605 8.30697 81.0298 9.35567C82.1895 10.4825 82.7694 12.0453 82.7694 14.0481L82.7735 14.044Z" fill="black"/>
<path d="M86.3721 20.02C86.3721 18.5313 86.8861 17.3468 87.9184 16.4709C88.9465 15.5949 90.3695 15.1548 92.1749 15.1548H97.2622V13.7894C97.2622 12.4816 96.9373 11.507 96.2793 10.8695C95.6254 10.2321 94.5767 9.9154 93.129 9.9154C92.2983 9.9154 91.6033 10.0306 91.0481 10.2567C90.4888 10.4829 89.9171 10.8654 89.3249 11.4C88.9959 11.6961 88.6463 11.8442 88.2844 11.8442C87.976 11.8442 87.7251 11.7414 87.5318 11.5358C87.3262 11.2972 87.2234 11.034 87.2234 10.7503C87.2234 10.2033 87.758 9.57817 88.8273 8.8708C89.9747 8.14288 91.4141 7.77686 93.1455 7.77686C95.3087 7.77686 96.9455 8.25391 98.06 9.20392C99.1745 10.1539 99.7338 11.5522 99.7338 13.3946V23.2443C99.7338 23.7666 99.6598 24.149 99.5118 24.3876C99.2938 24.7413 98.9525 24.9181 98.4877 24.9181C98.023 24.9181 97.6817 24.7413 97.4637 24.3876C97.3157 24.149 97.2416 23.7666 97.2416 23.2443V23.2114C96.5713 23.8694 95.8721 24.3341 95.1524 24.5932C94.4327 24.8523 93.5238 24.9839 92.4299 24.9839C91.2702 24.9839 90.316 24.8605 89.5717 24.6179C88.8273 24.3752 88.1857 23.9845 87.6511 23.4499C86.7957 22.5616 86.3721 21.4183 86.3721 20.02ZM88.8108 20.0036C88.8108 21.9282 90.1022 22.8865 92.6849 22.8865C93.5033 22.8865 94.2065 22.8083 94.7946 22.6562C95.3786 22.504 95.9133 22.1997 96.3903 21.7432C96.9702 21.1756 97.2622 20.201 97.2622 18.8232V17.0302H92.4505C91.2578 17.0302 90.353 17.2851 89.7362 17.791C89.1234 18.2968 88.8149 19.033 88.8149 19.9994L88.8108 20.0036Z" fill="black"/>
<path d="M107.449 9.89875V20.1884C107.449 21.817 108.189 22.6272 109.665 22.6272C110.179 22.6272 110.545 22.6971 110.776 22.8328C111.084 23.0261 111.236 23.3181 111.236 23.7047C111.236 24.0913 111.084 24.3833 110.776 24.5766C110.549 24.7123 110.179 24.7822 109.665 24.7822H109.221C107.856 24.7822 106.803 24.3586 106.063 23.5114C105.322 22.6642 104.952 21.5867 104.952 20.2789V9.90287H103.776C103.344 9.90287 103.044 9.84529 102.871 9.73014C102.6 9.56975 102.46 9.31065 102.46 8.94463C102.46 8.57862 102.596 8.31952 102.871 8.15913C103.044 8.04398 103.344 7.9864 103.776 7.9864H104.952V4.38378C104.952 3.86148 105.026 3.47901 105.174 3.24048C105.392 2.8868 105.734 2.70996 106.198 2.70996C106.663 2.70996 107.004 2.8868 107.222 3.24048C107.37 3.47901 107.444 3.86148 107.444 4.38378V7.9864H109.92C110.352 7.9864 110.652 8.04398 110.825 8.15913C111.096 8.31952 111.236 8.57862 111.236 8.94463C111.236 9.31065 111.101 9.56975 110.825 9.73014C110.652 9.84529 110.352 9.90287 109.92 9.90287H107.444L107.449 9.89875Z" fill="black"/>
<path d="M114.876 2.88292C114.547 2.55391 114.383 2.15499 114.383 1.69027C114.383 1.22555 114.547 0.826629 114.876 0.49351C115.205 0.160391 115.604 0 116.073 0C116.542 0 116.937 0.164503 117.266 0.49351C117.595 0.822517 117.759 1.22144 117.759 1.69027C117.759 2.15911 117.595 2.55391 117.266 2.88292C116.937 3.21193 116.538 3.37643 116.073 3.37643C115.608 3.37643 115.209 3.21193 114.876 2.88292ZM117.315 9.52063V23.2443C117.315 23.7666 117.241 24.1491 117.093 24.3876C116.875 24.7413 116.534 24.9181 116.069 24.9181C115.604 24.9181 115.263 24.7413 115.045 24.3876C114.897 24.1491 114.823 23.7666 114.823 23.2443V9.52474C114.823 9.00244 114.897 8.61997 115.045 8.38144C115.263 8.02776 115.604 7.85092 116.069 7.85092C116.534 7.85092 116.875 8.02776 117.093 8.38144C117.241 8.61997 117.315 9.00244 117.315 9.52474V9.52063Z" fill="black"/>
<path d="M128.373 7.78076C130.319 7.78076 131.931 8.41821 133.202 9.69311C134.008 10.5115 134.555 11.4615 134.838 12.5431C135.122 13.6247 135.266 14.9038 135.266 16.3843C135.266 17.8648 135.122 19.1438 134.838 20.2254C134.555 21.307 134.008 22.257 133.202 23.0755C131.927 24.3504 130.319 24.9878 128.373 24.9878C126.428 24.9878 124.816 24.3504 123.541 23.0755C122.735 22.257 122.188 21.307 121.904 20.2254C121.621 19.1438 121.477 17.8648 121.477 16.3843C121.477 14.9038 121.621 13.6247 121.904 12.5431C122.188 11.4615 122.735 10.5115 123.541 9.69311C124.816 8.41821 126.424 7.78076 128.373 7.78076ZM128.373 22.767C129.591 22.767 130.602 22.364 131.413 21.5538C132.321 20.6449 132.778 18.9217 132.778 16.3843C132.778 13.8468 132.321 12.1401 131.413 11.2312C130.594 10.4128 129.578 10.0016 128.373 10.0016C127.168 10.0016 126.153 10.4128 125.334 11.2312C124.425 12.1401 123.969 13.8592 123.969 16.3843C123.969 18.9094 124.425 20.6449 125.334 21.5538C126.14 22.3599 127.156 22.767 128.373 22.767Z" fill="black"/>
<path d="M152.782 14.044V23.2439C152.782 23.7538 152.708 24.1363 152.56 24.3872C152.342 24.7408 152.001 24.9177 151.536 24.9177C151.047 24.9177 150.705 24.7408 150.512 24.3872C150.364 24.1363 150.29 23.7538 150.29 23.2439V14.4717C150.29 13.0035 149.932 11.8931 149.217 11.1364C148.501 10.3797 147.485 10.0013 146.177 10.0013C144.87 10.0013 143.842 10.3838 143.097 11.1529C142.353 11.9219 141.979 13.0282 141.979 14.4717V23.2439C141.979 23.7538 141.905 24.1363 141.756 24.3872C141.539 24.7408 141.197 24.9177 140.732 24.9177C140.268 24.9177 139.926 24.7408 139.708 24.3872C139.56 24.1363 139.486 23.7538 139.486 23.2439V9.52429C139.486 9.00199 139.56 8.61952 139.708 8.38099C139.926 8.02731 140.268 7.85047 140.732 7.85047C141.197 7.85047 141.539 8.02731 141.756 8.38099C141.905 8.61952 141.979 9.00199 141.979 9.52429V9.83273C143.208 8.46736 144.779 7.78467 146.687 7.78467C148.596 7.78467 149.969 8.30697 151.039 9.35567C152.198 10.4825 152.778 12.0453 152.778 14.0481L152.782 14.044Z" fill="black"/>
<path d="M156.385 20.02C156.385 18.5313 156.899 17.3468 157.931 16.4709C158.959 15.5949 160.382 15.1548 162.188 15.1548H167.275V13.7894C167.275 12.4816 166.95 11.507 166.292 10.8695C165.638 10.2321 164.589 9.9154 163.142 9.9154C162.311 9.9154 161.616 10.0306 161.061 10.2567C160.501 10.4829 159.93 10.8654 159.338 11.4C159.009 11.6961 158.659 11.8442 158.297 11.8442C157.989 11.8442 157.738 11.7414 157.545 11.5358C157.339 11.2972 157.236 11.034 157.236 10.7503C157.236 10.2033 157.771 9.57817 158.84 8.8708C159.987 8.14288 161.427 7.77686 163.158 7.77686C165.321 7.77686 166.958 8.25391 168.073 9.20392C169.187 10.1539 169.747 11.5522 169.747 13.3946V23.2443C169.747 23.7666 169.673 24.149 169.524 24.3876C169.306 24.7413 168.965 24.9181 168.5 24.9181C168.036 24.9181 167.694 24.7413 167.476 24.3876C167.328 24.149 167.254 23.7666 167.254 23.2443V23.2114C166.584 23.8694 165.885 24.3341 165.165 24.5932C164.445 24.8523 163.537 24.9839 162.443 24.9839C161.283 24.9839 160.329 24.8605 159.584 24.6179C158.84 24.3752 158.198 23.9845 157.664 23.4499C156.808 22.5616 156.385 21.4183 156.385 20.02ZM158.824 20.0036C158.824 21.9282 160.115 22.8865 162.698 22.8865C163.516 22.8865 164.219 22.8083 164.807 22.6562C165.391 22.504 165.926 22.1997 166.403 21.7432C166.983 21.1756 167.275 20.201 167.275 18.8232V17.0302H162.463C161.271 17.0302 160.366 17.2851 159.749 17.791C159.136 18.2968 158.828 19.033 158.828 19.9994L158.824 20.0036Z" fill="black"/>
<path d="M176.997 2.01513V20.1927C176.997 21.8213 177.737 22.6315 179.218 22.6315C179.74 22.6315 180.11 22.7014 180.328 22.8371C180.637 23.0304 180.789 23.3224 180.789 23.709C180.789 24.0956 180.637 24.3876 180.328 24.5809C180.11 24.7166 179.744 24.7865 179.218 24.7865H178.774C177.408 24.7865 176.356 24.3629 175.615 23.5157C174.875 22.6685 174.505 21.591 174.505 20.2832V2.01513C174.505 1.49283 174.579 1.11036 174.727 0.871832C174.945 0.51815 175.286 0.341309 175.751 0.341309C176.216 0.341309 176.557 0.51815 176.775 0.871832C176.923 1.11036 176.997 1.49283 176.997 2.01513Z" fill="black"/>
<path d="M194.977 17.0174H185.062C185.062 18.8722 185.49 20.3075 186.349 21.3192C187.209 22.3309 188.438 22.8367 190.042 22.8367C191.486 22.8367 192.687 22.4337 193.645 21.6235C194.122 21.2246 194.509 21.0272 194.805 21.0272C195.076 21.0272 195.323 21.1341 195.537 21.3521C195.755 21.57 195.862 21.8168 195.862 22.1047C195.862 22.664 195.282 23.3014 194.122 24.017C193.028 24.6668 191.634 24.9917 189.939 24.9917C187.628 24.9917 185.827 24.2761 184.527 22.8491C183.232 21.422 182.582 19.267 182.582 16.3882C182.582 13.5094 183.199 11.5271 184.433 10.0301C185.666 8.53316 187.361 7.78467 189.512 7.78467C191.663 7.78467 193.299 8.49203 194.529 9.91087C195.759 11.3256 196.384 13.2133 196.404 15.5698C196.404 16.0921 196.289 16.4704 196.063 16.6966C195.845 16.9146 195.483 17.0215 194.969 17.0215L194.977 17.0174ZM185.062 15.1421H193.97C193.925 14.0728 193.748 13.1639 193.439 12.4113C193.118 11.6382 192.613 11.0254 191.922 10.5771C191.227 10.1288 190.425 9.90265 189.516 9.90265C188.607 9.90265 187.801 10.1288 187.102 10.5853C186.403 11.0418 185.897 11.6505 185.592 12.4113C185.284 13.1639 185.107 14.0728 185.062 15.1421Z" fill="black"/>
<path d="M82.8928 48.051C82.8928 51.4192 82.1978 53.7963 80.8118 55.1863C79.833 56.1651 78.4676 56.6545 76.7157 56.6545C75.704 56.6545 74.8239 56.4941 74.0795 56.1775C73.3351 55.8608 72.6319 55.2768 71.9698 54.4378V54.9149C71.9698 55.4372 71.8957 55.8197 71.7477 56.0582C71.5297 56.4119 71.1884 56.5887 70.7237 56.5887C70.2589 56.5887 69.9176 56.4119 69.6996 56.0582C69.5516 55.8197 69.4775 55.4372 69.4775 54.9149V33.6816C69.4775 33.1593 69.5516 32.7769 69.6996 32.5383C69.9176 32.1847 70.2589 32.0078 70.7237 32.0078C71.1884 32.0078 71.5297 32.1847 71.7477 32.5383C71.8957 32.7769 71.9698 33.1593 71.9698 33.6816V41.6025C72.6278 40.7841 73.3351 40.2206 74.0877 39.9122C74.8403 39.6038 75.7163 39.4516 76.7157 39.4516C78.4676 39.4516 79.833 39.941 80.8118 40.9198C82.2019 42.3098 82.8928 44.6869 82.8928 48.0551V48.051ZM80.3142 49.988C80.3718 49.4246 80.4006 48.7789 80.4006 48.051C80.4006 47.3231 80.3718 46.6774 80.3142 46.114C80.2566 45.5505 80.1415 44.9789 79.9646 44.399C79.7878 43.8191 79.5534 43.338 79.2573 42.9555C78.9612 42.573 78.5499 42.2646 78.0276 42.0261C77.5053 41.7875 76.8884 41.6683 76.1852 41.6683C75.4819 41.6683 74.865 41.7875 74.3427 42.0261C73.8204 42.2646 73.4092 42.573 73.1131 42.9555C72.817 43.338 72.5825 43.8191 72.4057 44.399C72.2289 44.9789 72.1137 45.5505 72.0561 46.114C71.9986 46.6774 71.9698 47.3231 71.9698 48.051C71.9698 48.7789 71.9986 49.4246 72.0561 49.988C72.1137 50.5514 72.2289 51.1231 72.4057 51.703C72.5825 52.2828 72.817 52.764 73.1131 53.1465C73.4092 53.529 73.8163 53.8374 74.3427 54.0759C74.8691 54.3145 75.4819 54.4337 76.1852 54.4337C76.8884 54.4337 77.5053 54.3145 78.0276 54.0759C78.5499 53.8374 78.9612 53.529 79.2573 53.1465C79.5534 52.764 79.7878 52.2828 79.9646 51.703C80.1415 51.1231 80.2566 50.5514 80.3142 49.988Z" fill="black"/>
<path d="M87.1859 34.5494C86.8569 34.2204 86.6924 33.8215 86.6924 33.3568C86.6924 32.8921 86.8569 32.4931 87.1859 32.16C87.5149 31.831 87.9138 31.6665 88.3827 31.6665C88.8515 31.6665 89.2463 31.831 89.5794 32.16C89.9084 32.489 90.0729 32.8879 90.0729 33.3568C90.0729 33.8256 89.9084 34.2204 89.5794 34.5494C89.2504 34.8784 88.8515 35.0429 88.3827 35.0429C87.9138 35.0429 87.519 34.8784 87.1859 34.5494ZM89.6246 41.1871V54.9108C89.6246 55.4331 89.5506 55.8156 89.4026 56.0541C89.1846 56.4078 88.8433 56.5846 88.3785 56.5846C87.9138 56.5846 87.5725 56.4078 87.3545 56.0541C87.2065 55.8156 87.1324 55.4331 87.1324 54.9108V41.1871C87.1324 40.6648 87.2065 40.2824 87.3545 40.0438C87.5725 39.6902 87.9138 39.5133 88.3785 39.5133C88.8433 39.5133 89.1846 39.6902 89.4026 40.0438C89.5506 40.2824 89.6246 40.6648 89.6246 41.1871Z" fill="black"/>
<path d="M108.07 48.051C108.07 51.4192 107.375 53.7963 105.989 55.1863C105.01 56.1651 103.644 56.6545 101.892 56.6545C100.881 56.6545 100.001 56.4941 99.2563 56.1775C98.5119 55.8608 97.8086 55.2768 97.1465 54.4378V54.9149C97.1465 55.4372 97.0725 55.8197 96.9244 56.0582C96.7065 56.4119 96.3651 56.5887 95.9004 56.5887C95.4357 56.5887 95.0943 56.4119 94.8764 56.0582C94.7283 55.8197 94.6543 55.4372 94.6543 54.9149V33.6816C94.6543 33.1593 94.7283 32.7769 94.8764 32.5383C95.0943 32.1847 95.4357 32.0078 95.9004 32.0078C96.3651 32.0078 96.7065 32.1847 96.9244 32.5383C97.0725 32.7769 97.1465 33.1593 97.1465 33.6816V41.6025C97.8045 40.7841 98.5119 40.2206 99.2645 39.9122C100.017 39.6038 100.893 39.4516 101.892 39.4516C103.644 39.4516 105.01 39.941 105.989 40.9198C107.379 42.3098 108.07 44.6869 108.07 48.0551V48.051ZM105.491 49.988C105.549 49.4246 105.577 48.7789 105.577 48.051C105.577 47.3231 105.549 46.6774 105.491 46.114C105.433 45.5505 105.318 44.9789 105.141 44.399C104.965 43.8191 104.73 43.338 104.434 42.9555C104.138 42.573 103.727 42.2646 103.204 42.0261C102.682 41.7875 102.065 41.6683 101.362 41.6683C100.659 41.6683 100.042 41.7875 99.5195 42.0261C98.9972 42.2646 98.5859 42.573 98.2898 42.9555C97.9937 43.338 97.7593 43.8191 97.5825 44.399C97.4056 44.9789 97.2905 45.5505 97.2329 46.114C97.1753 46.6774 97.1465 47.3231 97.1465 48.051C97.1465 48.7789 97.1753 49.4246 97.2329 49.988C97.2905 50.5514 97.4056 51.1231 97.5825 51.703C97.7593 52.2828 97.9937 52.764 98.2898 53.1465C98.5859 53.529 98.9931 53.8374 99.5195 54.0759C100.046 54.3145 100.659 54.4337 101.362 54.4337C102.065 54.4337 102.682 54.3145 103.204 54.0759C103.727 53.8374 104.138 53.529 104.434 53.1465C104.73 52.764 104.965 52.2828 105.141 51.703C105.318 51.1231 105.433 50.5514 105.491 49.988Z" fill="black"/>
<path d="M114.72 33.6822V51.8598C114.72 53.4884 115.46 54.2986 116.941 54.2986C117.463 54.2986 117.833 54.3685 118.051 54.5042C118.359 54.6975 118.512 54.9895 118.512 55.3761C118.512 55.7626 118.359 56.0546 118.051 56.2479C117.833 56.3837 117.467 56.4536 116.941 56.4536H116.496C115.131 56.4536 114.078 56.03 113.338 55.1828C112.598 54.3356 112.228 53.2581 112.228 51.9503V33.6904C112.228 33.1681 112.302 32.7857 112.45 32.5471C112.668 32.1934 113.009 32.0166 113.474 32.0166C113.938 32.0166 114.28 32.1934 114.498 32.5471C114.646 32.7857 114.72 33.1681 114.72 33.6904V33.6822Z" fill="black"/>
<path d="M121.778 34.5494C121.449 34.2204 121.284 33.8215 121.284 33.3568C121.284 32.8921 121.449 32.4931 121.778 32.16C122.107 31.831 122.506 31.6665 122.974 31.6665C123.443 31.6665 123.838 31.831 124.171 32.16C124.5 32.489 124.665 32.8879 124.665 33.3568C124.665 33.8256 124.5 34.2204 124.171 34.5494C123.842 34.8784 123.443 35.0429 122.974 35.0429C122.506 35.0429 122.111 34.8784 121.778 34.5494ZM124.216 41.1871V54.9108C124.216 55.4331 124.142 55.8156 123.994 56.0541C123.776 56.4078 123.435 56.5846 122.97 56.5846C122.506 56.5846 122.164 56.4078 121.946 56.0541C121.798 55.8156 121.724 55.4331 121.724 54.9108V41.1871C121.724 40.6648 121.798 40.2824 121.946 40.0438C122.164 39.6902 122.506 39.5133 122.97 39.5133C123.435 39.5133 123.776 39.6902 123.994 40.0438C124.142 40.2824 124.216 40.6648 124.216 41.1871Z" fill="black"/>
<path d="M135.275 39.4478C137.22 39.4478 138.832 40.0852 140.103 41.3601C140.909 42.1785 141.456 43.1285 141.739 44.2101C142.023 45.2917 142.167 46.5707 142.167 48.0513C142.167 49.5318 142.023 50.8108 141.739 51.8924C141.456 52.974 140.909 53.924 140.103 54.7424C138.828 56.0173 137.22 56.6548 135.275 56.6548C133.329 56.6548 131.717 56.0173 130.446 54.7424C129.64 53.924 129.093 52.974 128.81 51.8924C128.526 50.8108 128.382 49.5318 128.382 48.0513C128.382 46.5707 128.526 45.2917 128.81 44.2101C129.093 43.1285 129.64 42.1785 130.446 41.3601C131.721 40.0852 133.329 39.4478 135.275 39.4478ZM135.275 54.434C136.492 54.434 137.504 54.031 138.314 53.2208C139.223 52.3119 139.679 50.5887 139.679 48.0513C139.679 45.5138 139.223 43.8071 138.314 42.8982C137.495 42.0798 136.484 41.6685 135.275 41.6685C134.065 41.6685 133.058 42.0798 132.235 42.8982C131.326 43.8071 130.87 45.5261 130.87 48.0513C130.87 50.5764 131.326 52.3119 132.235 53.2208C133.041 54.0269 134.057 54.434 135.275 54.434Z" fill="black"/>
<path d="M149.106 41.5657V51.8554C149.106 53.484 149.846 54.2942 151.322 54.2942C151.837 54.2942 152.203 54.3641 152.433 54.4998C152.741 54.6931 152.893 54.9851 152.893 55.3717C152.893 55.7583 152.741 56.0503 152.433 56.2436C152.207 56.3793 151.837 56.4492 151.322 56.4492H150.878C149.513 56.4492 148.46 56.0256 147.72 55.1784C146.98 54.3312 146.609 53.2537 146.609 51.9459V41.5699H145.433C145.001 41.5699 144.701 41.5123 144.528 41.3971C144.257 41.2367 144.117 40.9776 144.117 40.6116C144.117 40.2456 144.253 39.9865 144.528 39.8261C144.701 39.711 145.001 39.6534 145.433 39.6534H146.609V36.0508C146.609 35.5285 146.683 35.146 146.831 34.9075C147.049 34.5538 147.391 34.377 147.856 34.377C148.32 34.377 148.662 34.5538 148.88 34.9075C149.028 35.146 149.102 35.5285 149.102 36.0508V39.6534H151.577C152.009 39.6534 152.309 39.711 152.482 39.8261C152.754 39.9865 152.893 40.2456 152.893 40.6116C152.893 40.9776 152.758 41.2367 152.482 41.3971C152.309 41.5123 152.009 41.5699 151.577 41.5699H149.102L149.106 41.5657Z" fill="black"/>
<path d="M158.942 54.911C158.942 55.4333 158.868 55.8158 158.72 56.0543C158.502 56.408 158.161 56.5848 157.696 56.5848C157.232 56.5848 156.89 56.408 156.672 56.0543C156.524 55.8158 156.45 55.4333 156.45 54.911V33.6777C156.45 33.1554 156.524 32.773 156.672 32.5344C156.89 32.1807 157.232 32.0039 157.696 32.0039C158.161 32.0039 158.502 32.1807 158.72 32.5344C158.868 32.773 158.942 33.1554 158.942 33.6777V41.4957C160.172 40.1304 161.743 39.4477 163.651 39.4477C165.56 39.4477 167.04 40.007 168.113 41.1215C169.187 42.236 169.726 43.7494 169.726 45.6618V54.911C169.726 55.4333 169.652 55.8158 169.504 56.0543C169.286 56.408 168.944 56.5848 168.479 56.5848C168.015 56.5848 167.673 56.408 167.455 56.0543C167.307 55.8158 167.233 55.4333 167.233 54.911V46.0689C167.233 44.6131 166.88 43.515 166.168 42.7748C165.457 42.0345 164.449 41.6644 163.137 41.6644C161.825 41.6644 160.801 42.0386 160.057 42.783C159.313 43.5274 158.938 44.6254 158.938 46.0689V54.911H158.942Z" fill="black"/>
<path d="M186.11 48.6849H176.195C176.195 50.5397 176.622 51.975 177.482 52.9867C178.341 53.9983 179.571 54.5042 181.175 54.5042C182.619 54.5042 183.819 54.1012 184.778 53.291C185.255 52.8921 185.641 52.6947 185.937 52.6947C186.209 52.6947 186.456 52.8016 186.669 53.0196C186.887 53.2375 186.994 53.4843 186.994 53.7722C186.994 54.3315 186.414 54.9689 185.255 55.6845C184.161 56.3343 182.771 56.6592 181.072 56.6592C178.761 56.6592 176.96 55.9436 175.66 54.5165C174.365 53.0895 173.715 50.9345 173.715 48.0557C173.715 45.1769 174.332 43.1946 175.566 41.6976C176.799 40.2006 178.494 39.4521 180.645 39.4521C182.795 39.4521 184.432 40.1595 185.662 41.5784C186.892 42.9931 187.517 44.8808 187.537 47.2373C187.537 47.7596 187.422 48.1379 187.196 48.3641C186.978 48.5821 186.616 48.689 186.102 48.689L186.11 48.6849ZM176.195 46.8096H185.103C185.057 45.7403 184.881 44.8314 184.572 44.0788C184.255 43.3056 183.745 42.6929 183.055 42.2446C182.359 41.7963 181.558 41.5701 180.649 41.5701C179.74 41.5701 178.934 41.7963 178.235 42.2528C177.535 42.7093 177.03 43.318 176.725 44.0788C176.417 44.8314 176.24 45.7403 176.195 46.8096Z" fill="black"/>
<path d="M203.293 48.6849H193.377C193.377 50.5397 193.805 51.975 194.665 52.9867C195.524 53.9983 196.754 54.5042 198.358 54.5042C199.801 54.5042 201.002 54.1012 201.96 53.291C202.437 52.8921 202.824 52.6947 203.12 52.6947C203.391 52.6947 203.638 52.8016 203.852 53.0196C204.07 53.2375 204.177 53.4843 204.177 53.7722C204.177 54.3315 203.597 54.9689 202.437 55.6845C201.343 56.3343 199.949 56.6592 198.255 56.6592C195.944 56.6592 194.142 55.9436 192.843 54.5165C191.547 53.0895 190.897 50.9345 190.897 48.0557C190.897 45.1769 191.514 43.1946 192.748 41.6976C193.982 40.2006 195.676 39.4521 197.827 39.4521C199.978 39.4521 201.615 40.1595 202.845 41.5784C204.074 42.9931 204.699 44.8808 204.72 47.2373C204.72 47.7596 204.605 48.1379 204.379 48.3641C204.161 48.5821 203.799 48.689 203.285 48.689L203.293 48.6849ZM193.377 46.8096H202.285C202.24 45.7403 202.063 44.8314 201.755 44.0788C201.434 43.3056 200.928 42.6929 200.237 42.2446C199.542 41.7963 198.74 41.5701 197.831 41.5701C196.922 41.5701 196.116 41.7963 195.417 42.2528C194.718 42.7093 194.212 43.318 193.908 44.0788C193.599 44.8314 193.423 45.7403 193.377 46.8096Z" fill="black"/>
<path d="M221.828 55.4092C221.828 55.8287 221.634 56.1618 221.248 56.4003C221.042 56.5237 220.828 56.5895 220.598 56.5895C220.347 56.5895 220.133 56.5155 219.948 56.3674C219.763 56.2194 219.566 55.9767 219.352 55.6354L214.47 47.9037L211.209 51.6091V54.9198C211.209 55.4421 211.135 55.8245 210.987 56.0631C210.769 56.4168 210.428 56.5936 209.963 56.5936C209.498 56.5936 209.157 56.4168 208.939 56.0631C208.791 55.8245 208.717 55.4421 208.717 54.9198V33.6865C208.717 33.1642 208.791 32.7817 208.939 32.5432C209.157 32.1895 209.498 32.0127 209.963 32.0127C210.428 32.0127 210.769 32.1895 210.987 32.5432C211.135 32.7817 211.209 33.1642 211.209 33.6865V48.3808L218.394 40.1885C218.632 39.9171 218.838 39.7238 219.006 39.6169C219.179 39.5099 219.364 39.4565 219.57 39.4565C219.833 39.4565 220.072 39.5469 220.285 39.7279C220.557 39.9664 220.697 40.242 220.697 40.5463C220.697 40.8506 220.499 41.2331 220.1 41.6896L216.193 46.1435L221.4 54.3522C221.684 54.8087 221.828 55.1583 221.828 55.4092Z" fill="black"/>
<path d="M58.8055 31.782C58.8713 32.037 58.8713 32.3084 58.8055 32.5634L51.2506 62.7826C51.0697 63.5147 50.4117 63.9999 49.692 63.9999C49.5645 63.9999 49.4329 63.9835 49.3013 63.9506C48.4376 63.7367 47.9153 62.8608 48.1292 61.9971L55.5853 32.1686L48.1292 2.34413C47.9153 1.48049 48.4376 0.608621 49.3013 0.390654C50.1608 0.1768 51.0368 0.699098 51.2548 1.56274L58.8096 31.782H58.8055ZM5.58864 43.0299C5.37067 42.6351 4.89772 41.936 4.89772 39.1106C4.89772 36.606 4.89772 32.8225 4.89772 30.211C4.89772 23.2319 4.85249 22.8042 5.35833 21.6527C5.72847 20.8178 6.25076 20.4313 6.33713 20.3367C6.42349 20.2421 6.41115 20.1722 6.36592 20.1228C6.30834 20.0611 6.21375 20.057 6.0328 20.057C5.85184 20.057 4.89772 20.2256 3.39252 20.2256C1.57887 20.2256 1.02367 20.0981 0.604187 20.0981C0.575399 20.0981 0.415008 20.0981 0.415008 20.2174C0.415008 20.275 0.464359 20.3408 0.484922 20.3655C0.789253 20.6945 1.70636 21.3278 1.70636 23.3183C1.70636 25.5679 1.75571 29.882 1.75571 30.2151C1.75571 30.4989 1.70636 35.4134 1.70636 39.1065C1.70636 41.9401 1.37324 42.5076 1.07302 42.9641C0.793366 43.3959 0.373883 43.7332 0.094227 43.9511C-0.0168127 44.0375 -0.00447495 44.1156 -0.00447495 44.1485C-0.00447495 44.2431 0.0901144 44.2883 0.164141 44.2883C0.295744 44.2883 1.74749 44.0786 3.38841 44.0786C4.14512 44.0786 6.35769 44.276 6.4276 44.2801C6.51808 44.2842 6.57977 44.2267 6.57977 44.1403C6.57977 44.0416 6.54687 44.0128 6.49752 43.9635C6.34535 43.8113 5.82305 43.4617 5.58864 43.034V43.0299ZM37.6915 33.098C38.2754 33.7478 39.2213 34.9363 39.1802 37.6095C39.1514 39.4972 38.1151 41.6645 36.8484 42.5775C35.372 43.6386 33.8997 44.1938 31.3046 44.3254C30.6631 44.3583 30.0503 44.3829 29.8405 44.3254C29.7706 44.3048 29.6514 44.2554 29.6514 43.8977C29.6514 43.5399 29.6514 43.3219 29.639 43.0628C29.6349 42.9189 29.7336 42.8243 29.9845 42.8243C30.149 42.8243 32.596 43.0505 34.3849 41.2615C34.7016 40.9489 35.9107 39.6699 35.9107 37.2353C35.9107 36.3552 35.6064 34.85 34.4137 33.6573C33.3486 32.5922 31.2799 32.1357 29.1455 32.1357C28.9769 32.1357 28.9152 32.1233 28.8535 32.0534C28.8001 31.9917 28.8042 31.9136 28.8042 31.7573C28.8042 31.2556 28.8165 30.9924 28.8165 30.758C28.8165 30.6264 28.8206 30.54 28.8659 30.4865C28.8988 30.4413 28.9646 30.4043 29.0221 30.4002C29.713 30.3426 30.3669 30.211 30.7453 30.1205C32.2135 29.7668 34.1546 28.3274 34.1546 25.8352C34.1546 24.33 33.5871 22.8577 31.9338 22.0886C30.8605 21.5869 29.8776 21.5293 28.1749 21.5293C27.1057 21.5293 26.7273 21.5458 26.4806 21.5499C26.4353 21.5499 26.2009 21.5417 26.094 21.6486C25.9953 21.7473 25.9994 21.9529 25.9994 22.0311C25.9994 22.5657 25.9706 29.7092 25.9706 30.1657C25.9706 30.6222 26.0734 43.289 26.0734 43.7619C26.0734 43.873 26.0857 44.0251 26.0035 44.1074C25.9295 44.1855 25.8184 44.1814 25.7074 44.1814C25.1399 44.1814 23.3714 44.1485 22.7628 44.1691C22.1623 44.1896 18.8887 44.2554 18.2842 44.2554C17.803 44.2554 17.4617 44.2184 16.9928 44.0909C16.5898 43.984 16.2197 43.7085 15.792 43.2109C15.3725 42.7215 13.0859 39.8139 10.7952 36.569C10.1947 35.7177 6.99514 31.235 6.30011 30.3056C6.23843 30.2192 6.2302 30.1411 6.26721 30.1041C7.5051 28.9361 9.18303 27.0854 11.2517 24.7906C13.4725 22.3313 14.8419 20.4765 15.0065 20.312C15.0846 20.2339 15.1504 20.1434 15.3396 20.1434C15.5287 20.1434 16.2402 20.1352 17.0915 20.1105C17.729 20.0899 18.7037 20.0282 18.9628 20.0282C19.2218 20.0282 19.2589 20.0488 19.2794 20.1146C19.3123 20.2051 19.2342 20.2832 19.1972 20.3202C19.0573 20.4601 15.3313 23.4499 14.7103 24.038C14.4595 24.2765 9.77113 28.3891 9.38866 28.9361C9.37221 28.9608 9.37221 28.9813 9.37221 28.9937C9.37221 29.0019 9.37633 29.0183 9.39689 29.0512C9.79992 29.7463 14.1305 35.4381 14.772 36.2812C17.9634 40.4924 18.8846 41.4178 19.4028 41.8784C20.1883 42.5775 21.0519 42.8078 21.5619 42.8654C21.8004 42.8942 22.6106 42.9271 22.7217 42.8119C22.7833 42.7502 22.7792 42.6063 22.7792 42.5775C22.7792 42.45 22.7957 30.7662 22.7957 30.1534C22.7957 29.5406 22.734 22.6192 22.734 21.9817C22.734 21.3443 22.5325 20.7603 22.3597 20.4395C22.3351 20.3942 22.2816 20.2791 22.2981 20.201C22.3186 20.1187 22.4009 20.0694 22.5325 20.0858C22.9972 20.1352 23.7786 20.1146 24.5024 20.1146C25.2262 20.1146 25.8308 20.0611 26.0899 20.0611C26.6245 20.0611 29.857 19.983 30.7576 19.983C31.428 19.983 34.3191 19.9378 35.664 21.2826C36.8854 22.504 37.2925 23.6843 37.2925 25.4486C37.2925 26.9744 36.5317 28.167 35.8243 28.8744C35.2404 29.4584 34.3726 30.0341 33.6694 30.3508C33.1512 30.5852 32.7564 30.6922 32.7605 30.8155C32.7605 30.8813 32.9496 30.8978 33.328 30.9636C34.2616 31.1363 36.2027 31.4653 37.675 33.098H37.6915Z" fill="black"/>
</g>
<defs>
<clipPath id="clip0_49_3205">
<rect width="221.829" height="64" fill="white"/>
</clipPath>
</defs>
</svg>
