<?xml version="1.0" encoding="utf-8"?>
<!-- Generator: Adobe Illustrator 23.0.1, SVG Export Plug-In . SVG Version: 6.00 Build 0)  -->
<svg version="1.1" id="Laag_1" xmlns="http://www.w3.org/2000/svg" xmlns:xlink="http://www.w3.org/1999/xlink" x="0px" y="0px"
	 width="539.9470825px" height="155.6022034px" viewBox="0 0 539.9470825 155.6022034"
	 style="enable-background:new 0 0 539.9470825 155.6022034;" xml:space="preserve">
<metadata><?xpacket begin="﻿" id="W5M0MpCehiHzreSzNTczkc9d"?>
<x:xmpmeta xmlns:x="adobe:ns:meta/" x:xmptk="XMP Core 5.6.0">
   <rdf:RDF xmlns:rdf="http://www.w3.org/1999/02/22-rdf-syntax-ns#">
      <rdf:Description rdf:about=""/>
   </rdf:RDF>
</x:xmpmeta>
                                                                                                    
                                                                                                    
                                                                                                    
                                                                                                    
                                                                                                    
                                                                                                    
                                                                                                    
                                                                                                    
                                                                                                    
                                                                                                    
                                                                                                    
                                                                                                    
                                                                                                    
                                                                                                    
                                                                                                    
                                                                                                    
                                                                                                    
                                                                                                    
                                                                                                    
                                                                                                    
                           
<?xpacket end="w"?></metadata>
<style type="text/css">
	.st0{display:none;}
	.st1{display:inline;}
	.st2{fill:#FFFFFF;}
</style>
<g id="Zwart" class="st0">
	<g class="st1">
		<path d="M172.3127136,60.0999107c1.0700073,0,2.0171051-0.5354004,2.4697113-1.2758026
			c0.4114838-0.7001953,0.5345917-1.2765961,0.5345917-2.7583008V34.907711c0-7.1220016,3.9520111-10.7854996,10.1262054-10.7854996
			c6.1748962,0,9.9210815,3.581398,9.9210815,10.7854996v21.1580963c0,1.4817047,0.1230164,2.0581055,0.5346985,2.7583008
			c0.411499,0.7404022,1.3996277,1.2758026,2.4696045,1.2758026c1.0708313,0,2.0169983-0.5354004,2.4696045-1.2758026
			c0.4117126-0.7001953,0.5354004-1.2765961,0.5354004-2.7583008V33.8780098c0-4.6927032-1.3175049-8.5210037-4.1987915-11.319603
			c-2.5107117-2.4703979-6.0921021-3.7873001-10.4967957-3.7873001c-4.4866943,0-8.4380035,1.6875-11.3610077,4.9393997v-0.7403946
			c0-1.4407043-0.0820007-2.0171051-0.5345917-2.7583008c-0.4526062-0.7413025-1.3587036-1.2759018-2.4697113-1.2759018
			c-1.1118011,0-2.0169983,0.5345993-2.4696045,1.2759018c-0.4533997,0.7411957-0.5354004,1.3175964-0.5354004,2.7583008v33.0956955
			c0,1.4817047,0.1237183,2.0581055,0.5354004,2.7583008C170.2957153,59.5645103,171.2419128,60.0999107,172.3127136,60.0999107z"/>
		<path d="M236.5303192,56.0658073c0,1.4405975,0.0827942,2.0171051,0.5354004,2.7583008
			c0.4526062,0.7404022,1.3578796,1.2758026,2.469696,1.2758026c1.1117859,0,2.0169983-0.5354004,2.4696045-1.2758026
			c0.4526978-0.7411957,0.5346985-1.3177032,0.5346985-2.7583008V32.3142052
			c0-8.8504944-5.4330139-13.5430984-15.8887024-13.5430984c-4.3218994,0-7.4909973,0.7822037-10.4140015,2.6344986
			c-2.3876953,1.5645065-3.8692932,3.0461044-3.8692932,4.5278015c0,0.8650055,0.2879028,1.3586044,0.7411804,1.8940048
			c0.4526062,0.4936981,1.1520996,0.7404938,1.8105164,0.7404938c0.6590881,0,1.6054077-0.2467957,2.5105896-1.0700989
			c2.7173157-2.469696,5.0229187-3.5814972,9.1799927-3.5814972c7.0801086,0,9.9613037,3.169899,9.9613037,9.3442001v3.2937012
			h-12.2668762c-8.8086243,0-13.9947205,4.6097946-13.9947205,11.7317963c0,3.2929993,1.15271,6.2563019,3.0870056,8.273407
			c2.5523987,2.5934906,5.9273987,3.7052917,11.5257874,3.7052917c5.2279358,0,8.314209-1.0708008,11.6078186-4.2809906V56.0658073z
			 M234.4723053,52.4433098c-2.5113831,2.4286041-5.5567017,2.758194-8.9322815,2.758194
			c-6.2980042,0-9.3448181-2.3466949-9.3448181-6.9571915c0-4.6516037,2.9648132-7.1623001,8.7683105-7.1623001h11.6077881
			v4.3219986C236.5713043,48.8617058,235.8719025,51.0846062,234.4723053,52.4433098z"/>
		<path d="M267.5467834,23.875309c1.1117249,0,1.6874084-0.0820007,2.1811218-0.4115982
			c0.7001038-0.4115982,0.988678-1.0700989,0.988678-1.8933029c0-0.8231964-0.2885742-1.482399-0.988678-1.8939972
			c-0.4937134-0.3289032-1.069397-0.411705-2.1811218-0.411705h-5.9690857v-8.6849966
			c0-1.4413986-0.0820007-2.0169983-0.5346069-2.7583013c-0.4526672-0.7411957-1.3585815-1.275795-2.4696655-1.275795
			c-1.1118164,0-2.0169983,0.5345993-2.4697266,1.275795c-0.4525909,0.741303-0.5353851,1.3169026-0.5353851,2.7583013v8.6849966
			h-2.84021c-1.111084,0-1.6880798,0.0828018-2.1817932,0.411705c-0.7001953,0.4115982-0.9880066,1.0708008-0.9880066,1.8939972
			c0,0.823204,0.2878113,1.4817047,0.9880066,1.8933029c0.4937134,0.3295975,1.0707092,0.4115982,2.1817932,0.4115982h2.84021
			v25.0281982c0,6.009407,3.4166718,10.8669052,10.2910919,10.8669052h1.0700073c1.35849,0,2.1407776-0.1648102,2.6753845-0.4936981
			c0.7001953-0.4526062,1.1117859-1.1528015,1.1117859-2.0998993c0-0.9462128-0.4115906-1.6464081-1.1117859-2.0991058
			c-0.5346069-0.3296051-1.3168945-0.4936066-2.6753845-0.4936066c-3.6635132,0-5.3517151-2.1819-5.3517151-5.8863907V23.875309
			H267.5467834z"/>
		<path d="M282.7579956,8.1510134c2.263916,0,4.0751038-1.8112035,4.0751038-4.0758061
			c0-2.2639999-1.8111877-4.0751953-4.0751038-4.0751953c-2.2637939,0-4.0750122,1.8111954-4.0750122,4.0751953
			C278.6829834,6.3398099,280.4942017,8.1510134,282.7579956,8.1510134z"/>
		<path d="M282.7579956,18.9359093c-1.1109924,0-2.0169983,0.5345993-2.469574,1.2759018
			c-0.4534302,0.7411957-0.5354309,1.3175964-0.5354309,2.7583008v33.0956955c0,1.4405975,0.0820007,2.0171051,0.5354309,2.7583008
			c0.4525757,0.7404022,1.3585815,1.2758026,2.469574,1.2758026c1.1111145,0,2.0170898-0.5354004,2.4704285-1.2758026
			c0.4525757-0.7411957,0.5345764-1.3177032,0.5345764-2.7583008V22.9701118c0-1.4407043-0.0820007-2.0171051-0.5345764-2.7583008
			C284.7750854,19.4705086,283.8691101,18.9359093,282.7579956,18.9359093z"/>
		<path d="M329.2698975,39.5175056c0-6.2569962-0.7814941-11.8548965-4.9811096-16.1357956
			c-2.7992859-2.7993011-6.7088013-4.6106033-11.6488037-4.6106033c-4.940094,0-8.8495789,1.8113022-11.6488953,4.6106033
			c-4.1987915,4.280899-4.9810791,9.8787994-4.9810791,16.1357956c0,6.2160034,0.7822876,11.8557053,4.9810791,16.1366043
			c2.7993164,2.7993927,6.7088013,4.6105957,11.6488953,4.6105957c4.9400024,0,8.8495178-1.811203,11.6488037-4.6105957
			C328.4884033,51.3732109,329.2698975,45.7335091,329.2698975,39.5175056z M319.9668884,51.990612
			c-1.9752808,1.9759979-4.3218994,2.9223022-7.3269043,2.9223022c-3.0050964,0-5.3516846-0.9463043-7.3269958-2.9223022
			c-2.8401794-2.8403015-3.2935791-7.7805023-3.2935791-12.4731064c0-4.6925964,0.4533997-9.5909958,3.2935791-12.4312973
			c1.9753113-1.9760971,4.3218994-2.9639969,7.3269958-2.9639969c3.0050049,0,5.3516235,0.9878998,7.3269043,2.9639969
			c2.8403015,2.8403015,3.2936096,7.7387009,3.2936096,12.4312973
			C323.260498,44.2101097,322.8071899,49.1503105,319.9668884,51.990612z"/>
		<path d="M365.7120056,34.907711v21.1580963c0,1.4817047,0.1236877,2.0581055,0.5352783,2.7583008
			c0.4116211,0.7404022,1.3997192,1.2758026,2.469696,1.2758026c1.0700073,0,2.0170288-0.5354004,2.4704285-1.2758026
			c0.4115906-0.7001953,0.5345764-1.2765961,0.5345764-2.7583008V33.8780098c0-4.6927032-1.3168945-8.5210037-4.1980896-11.319603
			c-2.5114136-2.4703979-6.092804-3.7873001-10.4967957-3.7873001c-4.4866943,0-8.4386902,1.6875-11.3609924,4.9393997v-0.7403946
			c0-1.4407043-0.0827026-2.0171051-0.5354004-2.7583008c-0.4533997-0.7413025-1.3586121-1.2759018-2.4703979-1.2759018
			c-1.1110229,0-2.0169983,0.5345993-2.4696045,1.2759018c-0.4526062,0.7411957-0.5346985,1.3175964-0.5346985,2.7583008v33.0956955
			c0,1.4817047,0.1230774,2.0581055,0.5346985,2.7583008c0.4526062,0.7404022,1.4002991,1.2758026,2.4696045,1.2758026
			c1.0708008,0,2.0169983-0.5354004,2.4703979-1.2758026c0.4115906-0.7001953,0.5354004-1.2765961,0.5354004-2.7583008V34.907711
			c0-7.1220016,3.9512939-10.7854996,10.1261902-10.7854996C361.9664001,24.1222115,365.7120056,27.7036095,365.7120056,34.907711z"
			/>
		<path d="M394.6535034,36.5542107c-8.8092957,0-13.9962158,4.6097946-13.9962158,11.7317963
			c0,3.2929993,1.1528015,6.2563019,3.0877991,8.273407c2.5516968,2.5934906,5.9273376,3.7052917,11.525116,3.7052917
			c5.2277832,0,8.3157043-1.0708008,11.60849-4.2809906v0.0820923c0,1.4405975,0.0820007,2.0171051,0.534729,2.7583008
			c0.4532776,0.7404022,1.3592834,1.2758026,2.4703674,1.2758026c1.1109924,0,2.0169983-0.5354004,2.469635-1.2758026
			c0.4532776-0.7411957,0.5353699-1.3177032,0.5353699-2.7583008V32.3142052
			c0-8.8504944-5.4336853-13.5430984-15.8887024-13.5430984c-4.3226013,0-7.4924927,0.7822037-10.4146729,2.6344986
			c-2.3877258,1.5645065-3.8693237,3.0461044-3.8693237,4.5278015c0,0.8650055,0.2878113,1.3586044,0.740387,1.8940048
			c0.4526978,0.4936981,1.1529236,0.7404938,1.8120117,0.7404938c0.6577148,0,1.6054077-0.2467957,2.5107117-1.0700989
			c2.7164001-2.469696,5.0213013-3.5814972,9.1791992-3.5814972c7.0800781,0,9.9613037,3.169899,9.9613037,9.3442001v3.2937012
			H394.6535034z M406.9197083,45.4040108c0,3.457695-0.7002258,5.6805954-2.098999,7.039299
			c-2.5107117,2.4286041-5.5575256,2.758194-8.9324036,2.758194c-6.2987061,0-9.3439026-2.3466949-9.3439026-6.9571915
			c0-4.6516037,2.9631958-7.1623001,8.7674866-7.1623001h11.6078186V45.4040108z"/>
		<path d="M434.9559937,59.7704124h1.0708008c1.3579102,0,2.1400146-0.1648102,2.6746826-0.4936981
			c0.7001953-0.4526062,1.1118164-1.1528015,1.1118164-2.0998993c0-0.9462128-0.4116211-1.6464081-1.1118164-2.0991058
			c-0.534668-0.3296051-1.3167725-0.4936066-2.6746826-0.4936066c-3.6642151,0-5.3517151-2.1819-5.3517151-5.8863907V4.8574109
			c0-1.4407043-0.0826721-2.0171051-0.5354004-2.7575989c-0.4525757-0.7412032-1.3577881-1.2766036-2.469574-1.2766036
			c-1.1118164,0-2.0169983,0.5354004-2.4696045,1.2766036c-0.4526978,0.7404938-0.5346985,1.3168945-0.5346985,2.7575989v44.0460968
			C424.665802,54.9129143,428.0816956,59.7704124,434.9559937,59.7704124z"/>
		<path d="M476.5123901,53.3075066c0-1.3578949-1.2758179-2.592804-2.5523071-2.592804
			c-0.9060059,0-1.522644,0.3699036-2.7993164,1.4407043c-2.4285889,2.0581055-5.5567017,2.9223022-8.6854858,2.9223022
			c-7.8206177,0-12.0194702-5.186203-12.0194702-14.0366974h23.9157715c0.9470215,0,1.8522949,0,2.6345215-0.7822037
			c0.7821655-0.7823029,0.8231812-1.8934021,0.8231812-2.7165985c-0.0819702-11.2791977-6.3388672-18.7711029-16.6298828-18.7711029
			c-10.2081909,0-16.7119141,7.368103-16.7119141,20.7463989c0,14.3254013,6.9973145,20.7472,17.7409058,20.7472
			c4.1578979,0,7.6564941-0.9059906,10.0852051-2.3466034C473.9190063,56.9300041,476.5123901,55.1187096,476.5123901,53.3075066z
			 M451.7324219,29.9265099c1.480896-3.6634979,5.0623779-6.0512009,9.46698-6.0512009
			c4.4046631,0,7.9450684,2.3467026,9.4677734,6.0512009c0.9060059,2.2229004,1.1520996,3.7045975,1.2758179,6.5858994h-21.4871826
			C450.5795898,33.6311073,450.826416,32.1494102,451.7324219,29.9265099z"/>
		<path d="M186.7608185,96.1605072c-4.4457092,0-8.0681152,0.9880066-11.4438019,5.1869049V82.2467194
			c0-1.4406128-0.0820007-2.0171051-0.5345917-2.7575073c-0.4526062-0.7411957-1.3587036-1.2765961-2.4697113-1.2765961
			c-1.1118011,0-2.0169983,0.5354004-2.4696045,1.2765961c-0.4533997,0.7404022-0.5354004,1.3168945-0.5354004,2.7575073v51.2084961
			c0,1.4405975,0.0820007,2.0169983,0.5354004,2.758194c0.4526062,0.740509,1.3578033,1.2759094,2.4696045,1.2759094
			c1.1110077,0,2.0171051-0.5354004,2.4697113-1.2759094c0.4525909-0.7411957,0.5345917-1.3175964,0.5345917-2.758194v-1.1529083
			c3.3756866,4.2810059,6.9152985,5.3518066,11.4438019,5.3518066c4.1987915,0,7.7384949-1.399704,9.879303-3.5404968
			c4.1160889-4.1162109,5.0213928-10.7028046,5.0213928-17.2067108c0-6.503891-0.905304-13.0896912-5.0213928-17.2066956
			C194.4993134,97.5601196,190.95961,96.1605072,186.7608185,96.1605072z M185.4842072,132.3023071
			c-8.8495941,0-10.1671906-7.4917908-10.1671906-15.395401c0-7.9034882,1.3175964-15.395401,10.1671906-15.395401
			c8.8503113,0,10.1679077,7.4919128,10.1679077,15.395401
			C195.6521149,124.8105164,194.3345184,132.3023071,185.4842072,132.3023071z"/>
		<path d="M215.1421051,77.3894196c-2.2638855,0-4.0751953,1.8112946-4.0751953,4.0750885
			c0,2.2647095,1.8113098,4.0758972,4.0751953,4.0758972c2.2644958,0,4.0750122-1.8111877,4.0750122-4.0758972
			C219.2171173,79.2007141,217.406601,77.3894196,215.1421051,77.3894196z"/>
		<path d="M215.1421051,96.3253174c-1.1117859,0-2.0170898,0.5346985-2.4696655,1.2758942
			c-0.4526367,0.7411957-0.534729,1.3175049-0.534729,2.758194v33.0958099c0,1.4405975,0.0820923,2.0169983,0.534729,2.758194
			c0.4525757,0.740509,1.3578796,1.2759094,2.4696655,1.2759094c1.1116943,0,2.0169983-0.5354004,2.4696045-1.2759094
			c0.4526062-0.7411957,0.5354004-1.3175964,0.5354004-2.758194v-33.0958099c0-1.4406891-0.0827942-2.0169983-0.5354004-2.758194
			S216.2537994,96.3253174,215.1421051,96.3253174z"/>
		<path d="M247.8972015,96.1605072c-4.4456787,0-8.0680847,0.9880066-11.4437866,5.1869049V82.2467194
			c0-1.4406128-0.0820007-2.0171051-0.5346069-2.7575073c-0.4526062-0.7411957-1.3585815-1.2765961-2.469696-1.2765961
			c-1.1117859,0-2.0169983,0.5354004-2.4696045,1.2765961c-0.4533997,0.7404022-0.5354004,1.3168945-0.5354004,2.7575073v51.2084961
			c0,1.4405975,0.0820007,2.0169983,0.5354004,2.758194c0.4526062,0.740509,1.3578186,1.2759094,2.4696045,1.2759094
			c1.1111145,0,2.0170898-0.5354004,2.469696-1.2759094c0.4526062-0.7411957,0.5346069-1.3175964,0.5346069-2.758194v-1.1529083
			c3.3757019,4.2810059,6.9154053,5.3518066,11.4437866,5.3518066c4.198822,0,7.7385254-1.399704,9.8792877-3.5404968
			c4.1162109-4.1162109,5.0214233-10.7028046,5.0214233-17.2067108c0-6.503891-0.9052124-13.0896912-5.0214233-17.2066956
			C255.6357269,97.5601196,252.0960236,96.1605072,247.8972015,96.1605072z M246.6206207,132.3023071
			c-8.8496094,0-10.1672058-7.4917908-10.1672058-15.395401c0-7.9034882,1.3175964-15.395401,10.1672058-15.395401
			c8.8504028,0,10.167984,7.4919128,10.167984,15.395401C256.7886047,124.8105164,255.4710236,132.3023071,246.6206207,132.3023071z
			"/>
		<path d="M287.243988,132.4671173c-0.5346985-0.3296051-1.3168945-0.4936066-2.6746826-0.4936066
			c-3.6642151,0-5.3517151-2.1819-5.3517151-5.8865051V82.2467194c0-1.4406128-0.0827942-2.0171051-0.5354004-2.7575073
			c-0.4526062-0.7411957-1.3578796-1.2765961-2.4696045-1.2765961c-1.1118774,0-2.0170898,0.5354004-2.469696,1.2765961
			c-0.4526062,0.7404022-0.5346985,1.3168945-0.5346985,2.7575073v44.0460968
			c0,6.009491,3.4160156,10.8668976,10.2903137,10.8668976h1.0708008c1.3577881,0,2.1399841-0.1647949,2.6746826-0.4936981
			c0.7001038-0.4526062,1.1118164-1.1528015,1.1118164-2.0997009
			C288.3558044,133.6200104,287.9440918,132.9198151,287.243988,132.4671173z"/>
		<path d="M299.5087891,77.3894196c-2.2638855,0-4.0751038,1.8112946-4.0751038,4.0750885
			c0,2.2647095,1.8112183,4.0758972,4.0751038,4.0758972c2.2646179,0,4.0750122-1.8111877,4.0750122-4.0758972
			C303.5838013,79.2007141,301.773407,77.3894196,299.5087891,77.3894196z"/>
		<path d="M299.5087891,96.3253174c-1.1117859,0-2.0170898,0.5346985-2.469696,1.2758942s-0.534668,1.3175049-0.534668,2.758194
			v33.0958099c0,1.4405975,0.0820618,2.0169983,0.534668,2.758194c0.4526062,0.740509,1.3579102,1.2759094,2.469696,1.2759094
			c1.1116943,0,2.0169983-0.5354004,2.469635-1.2759094c0.4525757-0.7411957,0.5353699-1.3175964,0.5353699-2.758194v-33.0958099
			c0-1.4406891-0.0827942-2.0169983-0.5353699-2.758194C301.5257874,96.8600159,300.6204834,96.3253174,299.5087891,96.3253174z"/>
		<path d="M329.390686,96.1605072c-4.93927,0-8.8502808,1.8113098-11.6495972,4.6105042
			c-4.1980896,4.2810059-4.9802856,9.8789062-4.9802856,16.1358948c0,6.2161102,0.782196,11.8556061,4.9802856,16.1366119
			c2.7993164,2.7993011,6.7103271,4.6105957,11.6495972,4.6105957c4.9393005,0,8.8504028-1.8112946,11.6495972-4.6105957
			c4.1981201-4.2810059,4.9803162-9.9205017,4.9803162-16.1366119c0-6.2569885-0.782196-11.8548889-4.9803162-16.1358948
			C338.2410889,97.971817,334.3299866,96.1605072,329.390686,96.1605072z M336.7175903,129.3800201
			c-1.9759827,1.9759979-4.3218994,2.922287-7.3269043,2.922287s-5.3508911-0.9462891-7.3269043-2.922287
			c-2.840271-2.8404083-3.2928772-7.7805023-3.2928772-12.473114c0-4.6925964,0.4526062-9.5909882,3.2928772-12.4312897
			c1.9760132-1.9761047,4.3218994-2.9641113,7.3269043-2.9641113s5.3509216,0.9880066,7.3269043,2.9641113
			c2.8403015,2.8403015,3.2929077,7.7386932,3.2929077,12.4312897
			C340.010498,121.5995178,339.5578918,126.5396118,336.7175903,129.3800201z"/>
		<path d="M369.1424866,101.2647095c1.1118164,0,1.6874084-0.0820923,2.1811218-0.4115906
			c0.7001953-0.4117126,0.988678-1.0700989,0.988678-1.8934021c0-0.8231049-0.2884827-1.4822998-0.988678-1.8939056
			c-0.4937134-0.3289032-1.0693054-0.4116974-2.1811218-0.4116974h-5.9690857v-8.6849976
			c0-1.4414062-0.0820007-2.0169983-0.5346069-2.7583008c-0.4526978-0.7411957-1.3586121-1.2758026-2.469696-1.2758026
			c-1.1116943,0-2.0169983,0.5346069-2.469696,1.2758026c-0.4525146,0.7413025-0.5353088,1.3168945-0.5353088,2.7583008v8.6849976
			h-2.8403015c-1.111084,0-1.6881104,0.0827942-2.1817932,0.4116974c-0.7001953,0.4116058-0.9880066,1.0708008-0.9880066,1.8939056
			c0,0.8233032,0.2878113,1.4816895,0.9880066,1.8934021c0.4936829,0.3294983,1.0707092,0.4115906,2.1817932,0.4115906h2.8403015
			v25.0281067c0,6.009491,3.4165955,10.8668976,10.2910156,10.8668976h1.0699768
			c1.3586121,0,2.1408081-0.1647949,2.675415-0.4936981c0.7001953-0.4526062,1.1117859-1.1528015,1.1117859-2.0997009
			c0-0.9463043-0.4115906-1.6464996-1.1117859-2.0991974c-0.5346069-0.3296051-1.316803-0.4936066-2.675415-0.4936066
			c-3.6634827,0-5.3516846-2.1819-5.3516846-5.8865051v-24.8222961H369.1424866z"/>
		<path d="M398.6047974,96.1605072c-4.6105042,0-8.3970032,1.6464996-11.3609924,4.9394073V82.2467194
			c0-1.4406128-0.0828247-2.0171051-0.5354004-2.7575073c-0.4526062-0.7411957-1.3579102-1.2765961-2.469696-1.2765961
			c-1.1118164,0-2.0170288,0.5354004-2.4696045,1.2765961c-0.4526978,0.7404022-0.5346985,1.3168945-0.5346985,2.7575073v51.2084961
			c0,1.4405975,0.0820007,2.0169983,0.5346985,2.758194c0.4525757,0.740509,1.3577881,1.2759094,2.4696045,1.2759094
			c1.1117859,0,2.0170898-0.5354004,2.469696-1.2759094c0.4525757-0.7411957,0.5354004-1.3175964,0.5354004-2.758194V112.132309
			c0-7.1212921,3.9512939-10.6208038,10.1261902-10.6208038c6.1748047,0,9.879303,3.4995117,9.879303,10.6208038v21.3229065
			c0,1.4405975,0.0820007,2.0169983,0.5346985,2.758194c0.4526062,0.740509,1.3586121,1.2759094,2.4696045,1.2759094
			c1.1118164,0,2.0170898-0.5354004,2.4696045-1.2759094c0.4533997-0.7411957,0.5361938-1.3175964,0.5361938-2.758194v-22.3108978
			C413.2593994,102.0059052,407.8659973,96.1605072,398.6047974,96.1605072z"/>
		<path d="M439.8381958,96.1605072c-10.2088928,0-16.712616,7.368103-16.712616,20.7463989
			c0,14.3254089,6.9980164,20.7472076,17.7409363,20.7472076c4.1577759,0,7.6564941-0.9060059,10.085083-2.3466949
			c1.6054688-0.9880066,4.1989136-2.7993011,4.1989136-4.6105042c0-1.3578949-1.2758179-2.592804-2.5524292-2.592804
			c-0.9052734,0-1.522644,0.3699036-2.7991943,1.4407043c-2.4287109,2.0580902-5.5559692,2.9223022-8.6848145,2.9223022
			c-7.8205872,0-12.0201721-5.186203-12.0201721-14.0368042h23.915802c0.9469604,0,1.8529663,0,2.6351929-0.782196
			c0.7821655-0.7822113,0.8231812-1.8933105,0.8231812-2.716507C456.385437,103.65242,450.128479,96.1605072,439.8381958,96.1605072
			z M429.0939026,113.9018097c0.1237793-2.8813019,0.3706055-4.3629913,1.2765808-6.5858917
			c1.4815979-3.6634979,5.0631104-6.0512085,9.4677124-6.0512085c4.4047241,0,7.944397,2.3467102,9.46698,6.0512085
			c0.9053345,2.2229004,1.152832,3.7045898,1.2759399,6.5858917H429.0939026z"/>
		<path d="M481.7052002,96.1605072c-10.2089233,0-16.7127075,7.368103-16.7127075,20.7463989
			c0,14.3254089,6.9981079,20.7472076,17.7409058,20.7472076c4.1578979,0,7.6566162-0.9060059,10.0852051-2.3466949
			c1.6054077-0.9880066,4.1989136-2.7993011,4.1989136-4.6105042c0-1.3578949-1.2759399-2.592804-2.5524292-2.592804
			c-0.9052734,0-1.5227051,0.3699036-2.7993164,1.4407043c-2.4285889,2.0580902-5.5559692,2.9223022-8.6847534,2.9223022
			c-7.8206177,0-12.0201416-5.186203-12.0201416-14.0368042h23.9158325c0.9468994,0,1.8529663,0,2.6350708-0.782196
			c0.7822266-0.7822113,0.8233032-1.8933105,0.8233032-2.716507
			C498.2523193,103.65242,491.9954224,96.1605072,481.7052002,96.1605072z M470.9608765,113.9018097
			c0.1237183-2.8813019,0.3706055-4.3629913,1.2765503-6.5858917c1.4816895-3.6634979,5.0630493-6.0512085,9.4677734-6.0512085
			c4.4046021,0,7.9442749,2.3467102,9.46698,6.0512085c0.9052124,2.2229004,1.152832,3.7045898,1.2758179,6.5858917H470.9608765z"/>
		<path d="M538.9174194,132.0965118l-12.5548096-19.7993927l9.4259644-10.7438049
			c1.152832-1.3177032,1.4414062-2.0171051,1.4414062-2.7584076c0-0.8230896-0.3705444-1.4405975-0.9880981-1.9759979
			c-0.4943848-0.4115906-1.1519775-0.6584015-1.729187-0.6584015c-1.0281982,0-1.6873779,0.4526062-2.84021,1.7703094
			l-17.3292847,19.7583008V82.2467194c0-1.4406128-0.0827637-2.0171051-0.5354004-2.7575073
			c-0.4526978-0.7411957-1.3579102-1.2765961-2.4697266-1.2765961c-1.1117554,0-2.0169678,0.5354004-2.4696655,1.2765961
			c-0.4526367,0.7404022-0.5346069,1.3168945-0.5346069,2.7575073v51.2084961c0,1.4405975,0.0819702,2.0169983,0.5346069,2.758194
			c0.4526978,0.740509,1.3579102,1.2759094,2.4696655,1.2759094c1.1118164,0,2.0170288-0.5354004,2.4697266-1.2759094
			c0.4526367-0.7411957,0.5354004-1.3175964,0.5354004-2.758194v-7.9855957l7.8623047-8.9333038l11.772583,18.6481018
			c0.9873047,1.5636902,1.7283936,2.3049011,3.0043335,2.3049011c0.5360718,0,1.0296631-0.1238098,1.5643921-0.452713
			c0.9469604-0.5764008,1.4002686-1.4405975,1.4002686-2.3875885
			C539.9470825,133.9078064,539.6176147,133.208313,538.9174194,132.0965118z"/>
		<path d="M124.6261063,3.7868085c-0.5243988-2.096199-2.6506042-3.3684006-4.7453003-2.8469009
			c-2.0960999,0.5243988-3.3703918,2.6483994-2.8468018,4.7453003l18.1313095,72.5269012l-18.1313095,72.5276031
			c-0.5235901,2.0968933,0.7507019,4.2209015,2.8468018,4.7453003c0.3186188,0.0791016,0.6380005,0.1172028,0.9522095,0.1172028
			c1.7532959,0,3.3484955-1.1865082,3.7930908-2.9641113l18.3686142-73.4767914
			c0.1551971-0.6233063,0.1551971-1.2752075,0-1.8984985L124.6261063,3.7868085z"/>
		<path d="M13.5928116,104.483017c-0.5345001-0.9615021-1.6769028-2.6569977-1.6769028-9.5267029
			c0-6.0948944-0.0056-15.2868958-0.0056-21.6423035c0-16.9722023-0.1137009-18.0137062,1.1243057-20.8150063
			c0.8958969-2.0319977,2.1691971-2.9657974,2.380394-3.1975937c0.2097015-0.2330017,0.1850052-0.4033051,0.0656052-0.5229034
			c-0.1428986-0.1456985-0.3728027-0.1572952-0.8143997-0.1572952c-0.4412003,0-2.7619019,0.4077988-6.4224014,0.4077988
			c-4.4065013,0-5.755302-0.3102036-6.7779002-0.3102036c-0.0712967,0-0.4559021-0.0086975-0.4559021,0.2870026
			c0,0.1369019,0.1152039,0.3015976,0.1659012,0.3582993c0.7401047,0.7983017,2.9689026,2.3380051,2.9746017,7.1772995
			c0.0059967,5.4743958,0.1222992,15.9611092,0.1222992,16.7696114c0.0059967,0.6947937-0.1163025,12.636795-0.1163025,21.6160889
			c0,6.8872986-0.8144989,8.2739105-1.5355988,9.3809967c-0.6771014,1.0547028-1.7013016,1.8706055-2.3758011,2.4007111
			c-0.2678986,0.2097931-0.2445984,0.4021912-0.2445984,0.4837036c0,0.2272949,0.2273026,0.3438873,0.4063034,0.3438873
			c0.3248978,0,3.8542938-0.5128021,7.8369975-0.5128021c1.8383026,0,7.2192993,0.4776001,7.3926086,0.489212
			c0.2171936,0.0116882,0.3728867-0.1339111,0.3728867-0.3377075c0-0.2449036-0.0772934-0.3089905-0.2025986-0.4313965
			C15.4398117,106.3768158,14.1710129,105.5203094,13.5928116,104.483017z"/>
		<path d="M81.084816,75.1480103c-0.9191132-0.1672974-1.3693085-0.2037048-1.3778992-0.3638916
			c-0.0177002-0.2987061,0.9483948-0.5582123,2.2052002-1.1278076c1.7144928-0.7731934,3.8179932-2.1687927,5.2413025-3.5921936
			c1.7174835-1.7217102,3.5673828-4.6235046,3.5673828-8.3321114c0-4.2901001-0.990799-7.1596985-3.9578857-10.1287994
			c-3.2732086-3.272995-10.3044891-3.1623001-11.9300995-3.1623001c-2.1996002,0-10.0540009,0.1936035-11.3549042,0.1936035
			c-0.6322021,0-2.1426086,0.1282959-3.8630981,0.1282959c-1.7610016,0-3.6604004,0.045105-4.790802-0.0712967
			c-0.3162079-0.0322037-0.5203094,0.0886002-0.569809,0.2840958c-0.0479889,0.1965027,0.088913,0.4761047,0.1459045,0.5841064
			c0.4149017,0.7851944,0.9060059,2.2403946,0.9060059,3.7524033c0,1.5457001,0.1501007,18.3806038,0.1501007,19.8665962
			c0,1.4887085-0.0424042,29.9002075-0.0424042,30.2089996c0,0.0641022,0.0176086,0.4138031-0.1369019,0.5653076
			c-0.2738953,0.279892-2.2490997,0.1981964-2.8246002,0.1282959c-1.2350006-0.1399078-3.3386002-0.6936035-5.2481995-2.3950043
			c-1.2644958-1.1243896-3.4990005-3.3679047-11.2614975-13.6114044
			c-1.5571899-2.0510864-12.0891037-15.8895874-13.069397-17.583786c-0.0480042-0.0845032-0.0597-0.122406-0.0597-0.144104
			c0-0.0263062,0.0056992-0.080307,0.0435944-0.1370087c0.9308014-1.327301,12.3251038-11.3273964,12.9396057-11.9086037
			c1.5121994-1.4263,10.5727081-8.6966934,10.9118958-9.0403976c0.0904007-0.0858994,0.2814026-0.2798004,0.2025986-0.4981995
			c-0.0524979-0.157196-0.1485977-0.2111969-0.7690964-0.2111969c-0.626503,0-3.0009003,0.1455994-4.549202,0.1966019
			c-2.0742035,0.0655975-3.7974014,0.082901-4.2637024,0.082901c-0.4617844,0-0.6175003,0.2156982-0.8113937,0.4067001
			c-0.4048004,0.4077988-3.7378006,4.9191971-9.1348038,10.8944931c-5.0356979,5.5792122-9.112999,10.0804024-12.1210022,12.9181099
			c-0.0975876,0.0919952-0.074295,0.2870026,0.077301,0.4922943c1.6927032,2.2581024,9.4698029,13.1571045,10.9280014,15.2257996
			c5.5672989,7.8834076,11.1246033,14.9571991,12.1457977,16.1461029c1.0399017,1.2118073,1.947403,1.8878021,2.9235001,2.144104
			c1.1477051,0.3087921,1.9766998,0.3961945,3.1435013,0.3961945c1.4624023,0,9.4217987-0.1631927,10.8856964-0.2097931
			c1.473999-0.040802,5.7729034,0.0349884,7.1551056,0.0349884c0.2650909,0,0.5330048,0.0059052,0.7153015-0.1804962
			c0.2082062-0.2097931,0.1734009-0.5769958,0.1734009-0.8448944c0-1.1421051-0.2536011-31.9425964-0.2536011-33.0557098
			c0-1.1156921,0.0715942-18.4810982,0.0715942-19.7847939c0-0.1940002-0.0090027-0.6979065,0.227005-0.9338074
			c0.2565918-0.2565918,0.8318024-0.2359924,0.9396973-0.2389984c0.5957947-0.0056915,1.5205994-0.0450897,4.116394-0.0450897
			c4.137207,0,6.5333099,0.1470947,9.1407166,1.3633881c4.0220032,1.8778076,5.3970032,5.4509125,5.3970032,9.1147003
			c0,6.059803-4.7195129,9.5589027-8.2944183,10.4184151c-0.920578,0.2198944-2.5112915,0.5387878-4.1934967,0.6772003
			c-0.1313019,0.0115967-0.2987061,0.0975952-0.3759918,0.2082977c-0.1019135,0.134201-0.1166077,0.3424988-0.1166077,0.662796
			c0,0.5695953-0.0334015,1.2077026-0.0334015,2.4284973c0,0.3874969-0.0146027,0.5724945,0.1166992,0.7238007
			c0.1470032,0.1676025,0.3012085,0.201004,0.7106018,0.201004c5.1902008,0,10.2169952,1.1100922,12.8070984,3.7003021
			c2.8988953,2.9015961,3.6417084,6.5608978,3.6417084,8.6994019c0,5.9200897-2.9468994,9.0256958-3.7130127,9.7888947
			c-4.3468933,4.3470001-10.2957916,3.7993011-10.697998,3.7993011c-0.608902,0-0.8564911,0.227005-0.8417969,0.5765991
			c0.0232086,0.6295013,0.032196,1.1421051,0.032196,2.0278015c0,0.8740997,0.2867126,0.9904938,0.4603119,1.0429993
			c0.5098877,0.1459045,1.9984894,0.0818024,3.5614014,0.0059052c6.3101959-0.3203125,9.8921967-1.6665039,13.4843903-4.2479095
			c3.0853119-2.2198944,5.6026001-7.4933014,5.6739044-12.0789948c0.102005-6.5027008-2.1954041-9.3986053-3.6184082-10.9747009
			C88.0782089,76.3643188,83.3587112,75.5648193,81.084816,75.1480103z"/>
	</g>
</g>
<g id="Wit" class="st0">
	<g class="st1">
		<path class="st2" d="M172.3127136,60.0999107c1.0700073,0,2.0171051-0.5354004,2.4697113-1.2758026
			c0.4114838-0.7001953,0.5345917-1.2765961,0.5345917-2.7583008V34.907711c0-7.1220016,3.9520111-10.7854996,10.1262054-10.7854996
			c6.1748962,0,9.9210815,3.581398,9.9210815,10.7854996v21.1580963c0,1.4817047,0.1230164,2.0581055,0.5346985,2.7583008
			c0.411499,0.7404022,1.3996277,1.2758026,2.4696045,1.2758026c1.0708313,0,2.0169983-0.5354004,2.4696045-1.2758026
			c0.4117126-0.7001953,0.5354004-1.2765961,0.5354004-2.7583008V33.8780098c0-4.6927032-1.3175049-8.5210037-4.1987915-11.319603
			c-2.5107117-2.4703979-6.0921021-3.7873001-10.4967957-3.7873001c-4.4866943,0-8.4380035,1.6875-11.3610077,4.9393997v-0.7403946
			c0-1.4407043-0.0820007-2.0171051-0.5345917-2.7583008c-0.4526062-0.7413025-1.3587036-1.2759018-2.4697113-1.2759018
			c-1.1118011,0-2.0169983,0.5345993-2.4696045,1.2759018c-0.4533997,0.7411957-0.5354004,1.3175964-0.5354004,2.7583008v33.0956955
			c0,1.4817047,0.1237183,2.0581055,0.5354004,2.7583008C170.2957153,59.5645103,171.2419128,60.0999107,172.3127136,60.0999107z"/>
		<path class="st2" d="M236.5303192,56.0658073c0,1.4405975,0.0827942,2.0171051,0.5354004,2.7583008
			c0.4526062,0.7404022,1.3578796,1.2758026,2.469696,1.2758026c1.1117859,0,2.0169983-0.5354004,2.4696045-1.2758026
			c0.4526978-0.7411957,0.5346985-1.3177032,0.5346985-2.7583008V32.3142052
			c0-8.8504944-5.4330139-13.5430984-15.8887024-13.5430984c-4.3218994,0-7.4909973,0.7822037-10.4140015,2.6344986
			c-2.3876953,1.5645065-3.8692932,3.0461044-3.8692932,4.5278015c0,0.8650055,0.2879028,1.3586044,0.7411804,1.8940048
			c0.4526062,0.4936981,1.1520996,0.7404938,1.8105164,0.7404938c0.6590881,0,1.6054077-0.2467957,2.5105896-1.0700989
			c2.7173157-2.469696,5.0229187-3.5814972,9.1799927-3.5814972c7.0801086,0,9.9613037,3.169899,9.9613037,9.3442001v3.2937012
			h-12.2668762c-8.8086243,0-13.9947205,4.6097946-13.9947205,11.7317963c0,3.2929993,1.15271,6.2563019,3.0870056,8.273407
			c2.5523987,2.5934906,5.9273987,3.7052917,11.5257874,3.7052917c5.2279358,0,8.314209-1.0708008,11.6078186-4.2809906V56.0658073z
			 M234.4723053,52.4433098c-2.5113831,2.4286041-5.5567017,2.758194-8.9322815,2.758194
			c-6.2980042,0-9.3448181-2.3466949-9.3448181-6.9571915c0-4.6516037,2.9648132-7.1623001,8.7683105-7.1623001h11.6077881
			v4.3219986C236.5713043,48.8617058,235.8719025,51.0846062,234.4723053,52.4433098z"/>
		<path class="st2" d="M267.5467834,23.875309c1.1117249,0,1.6874084-0.0820007,2.1811218-0.4115982
			c0.7001038-0.4115982,0.988678-1.0700989,0.988678-1.8933029c0-0.8231964-0.2885742-1.482399-0.988678-1.8939972
			c-0.4937134-0.3289032-1.069397-0.411705-2.1811218-0.411705h-5.9690857v-8.6849966
			c0-1.4413986-0.0820007-2.0169983-0.5346069-2.7583013c-0.4526672-0.7411957-1.3585815-1.275795-2.4696655-1.275795
			c-1.1118164,0-2.0169983,0.5345993-2.4697266,1.275795c-0.4525909,0.741303-0.5353851,1.3169026-0.5353851,2.7583013v8.6849966
			h-2.84021c-1.111084,0-1.6880798,0.0828018-2.1817932,0.411705c-0.7001953,0.4115982-0.9880066,1.0708008-0.9880066,1.8939972
			c0,0.823204,0.2878113,1.4817047,0.9880066,1.8933029c0.4937134,0.3295975,1.0707092,0.4115982,2.1817932,0.4115982h2.84021
			v25.0281982c0,6.009407,3.4166718,10.8669052,10.2910919,10.8669052h1.0700073c1.35849,0,2.1407776-0.1648102,2.6753845-0.4936981
			c0.7001953-0.4526062,1.1117859-1.1528015,1.1117859-2.0998993c0-0.9462128-0.4115906-1.6464081-1.1117859-2.0991058
			c-0.5346069-0.3296051-1.3168945-0.4936066-2.6753845-0.4936066c-3.6635132,0-5.3517151-2.1819-5.3517151-5.8863907V23.875309
			H267.5467834z"/>
		<path class="st2" d="M282.7579956,8.1510134c2.263916,0,4.0751038-1.8112035,4.0751038-4.0758061
			c0-2.2639999-1.8111877-4.0751953-4.0751038-4.0751953c-2.2637939,0-4.0750122,1.8111954-4.0750122,4.0751953
			C278.6829834,6.3398099,280.4942017,8.1510134,282.7579956,8.1510134z"/>
		<path class="st2" d="M282.7579956,18.9359093c-1.1109924,0-2.0169983,0.5345993-2.469574,1.2759018
			c-0.4534302,0.7411957-0.5354309,1.3175964-0.5354309,2.7583008v33.0956955c0,1.4405975,0.0820007,2.0171051,0.5354309,2.7583008
			c0.4525757,0.7404022,1.3585815,1.2758026,2.469574,1.2758026c1.1111145,0,2.0170898-0.5354004,2.4704285-1.2758026
			c0.4525757-0.7411957,0.5345764-1.3177032,0.5345764-2.7583008V22.9701118c0-1.4407043-0.0820007-2.0171051-0.5345764-2.7583008
			C284.7750854,19.4705086,283.8691101,18.9359093,282.7579956,18.9359093z"/>
		<path class="st2" d="M329.2698975,39.5175056c0-6.2569962-0.7814941-11.8548965-4.9811096-16.1357956
			c-2.7992859-2.7993011-6.7088013-4.6106033-11.6488037-4.6106033c-4.940094,0-8.8495789,1.8113022-11.6488953,4.6106033
			c-4.1987915,4.280899-4.9810791,9.8787994-4.9810791,16.1357956c0,6.2160034,0.7822876,11.8557053,4.9810791,16.1366043
			c2.7993164,2.7993927,6.7088013,4.6105957,11.6488953,4.6105957c4.9400024,0,8.8495178-1.811203,11.6488037-4.6105957
			C328.4884033,51.3732109,329.2698975,45.7335091,329.2698975,39.5175056z M319.9668884,51.990612
			c-1.9752808,1.9759979-4.3218994,2.9223022-7.3269043,2.9223022c-3.0050964,0-5.3516846-0.9463043-7.3269958-2.9223022
			c-2.8401794-2.8403015-3.2935791-7.7805023-3.2935791-12.4731064c0-4.6925964,0.4533997-9.5909958,3.2935791-12.4312973
			c1.9753113-1.9760971,4.3218994-2.9639969,7.3269958-2.9639969c3.0050049,0,5.3516235,0.9878998,7.3269043,2.9639969
			c2.8403015,2.8403015,3.2936096,7.7387009,3.2936096,12.4312973
			C323.260498,44.2101097,322.8071899,49.1503105,319.9668884,51.990612z"/>
		<path class="st2" d="M365.7120056,34.907711v21.1580963c0,1.4817047,0.1236877,2.0581055,0.5352783,2.7583008
			c0.4116211,0.7404022,1.3997192,1.2758026,2.469696,1.2758026c1.0700073,0,2.0170288-0.5354004,2.4704285-1.2758026
			c0.4115906-0.7001953,0.5345764-1.2765961,0.5345764-2.7583008V33.8780098c0-4.6927032-1.3168945-8.5210037-4.1980896-11.319603
			c-2.5114136-2.4703979-6.092804-3.7873001-10.4967957-3.7873001c-4.4866943,0-8.4386902,1.6875-11.3609924,4.9393997v-0.7403946
			c0-1.4407043-0.0827026-2.0171051-0.5354004-2.7583008c-0.4533997-0.7413025-1.3586121-1.2759018-2.4703979-1.2759018
			c-1.1110229,0-2.0169983,0.5345993-2.4696045,1.2759018c-0.4526062,0.7411957-0.5346985,1.3175964-0.5346985,2.7583008v33.0956955
			c0,1.4817047,0.1230774,2.0581055,0.5346985,2.7583008c0.4526062,0.7404022,1.4002991,1.2758026,2.4696045,1.2758026
			c1.0708008,0,2.0169983-0.5354004,2.4703979-1.2758026c0.4115906-0.7001953,0.5354004-1.2765961,0.5354004-2.7583008V34.907711
			c0-7.1220016,3.9512939-10.7854996,10.1261902-10.7854996C361.9664001,24.1222115,365.7120056,27.7036095,365.7120056,34.907711z"
			/>
		<path class="st2" d="M394.6535034,36.5542107c-8.8092957,0-13.9962158,4.6097946-13.9962158,11.7317963
			c0,3.2929993,1.1528015,6.2563019,3.0877991,8.273407c2.5516968,2.5934906,5.9273376,3.7052917,11.525116,3.7052917
			c5.2277832,0,8.3157043-1.0708008,11.60849-4.2809906v0.0820923c0,1.4405975,0.0820007,2.0171051,0.534729,2.7583008
			c0.4532776,0.7404022,1.3592834,1.2758026,2.4703674,1.2758026c1.1109924,0,2.0169983-0.5354004,2.469635-1.2758026
			c0.4532776-0.7411957,0.5353699-1.3177032,0.5353699-2.7583008V32.3142052
			c0-8.8504944-5.4336853-13.5430984-15.8887024-13.5430984c-4.3226013,0-7.4924927,0.7822037-10.4146729,2.6344986
			c-2.3877258,1.5645065-3.8693237,3.0461044-3.8693237,4.5278015c0,0.8650055,0.2878113,1.3586044,0.740387,1.8940048
			c0.4526978,0.4936981,1.1529236,0.7404938,1.8120117,0.7404938c0.6577148,0,1.6054077-0.2467957,2.5107117-1.0700989
			c2.7164001-2.469696,5.0213013-3.5814972,9.1791992-3.5814972c7.0800781,0,9.9613037,3.169899,9.9613037,9.3442001v3.2937012
			H394.6535034z M406.9197083,45.4040108c0,3.457695-0.7002258,5.6805954-2.098999,7.039299
			c-2.5107117,2.4286041-5.5575256,2.758194-8.9324036,2.758194c-6.2987061,0-9.3439026-2.3466949-9.3439026-6.9571915
			c0-4.6516037,2.9631958-7.1623001,8.7674866-7.1623001h11.6078186V45.4040108z"/>
		<path class="st2" d="M434.9559937,59.7704124h1.0708008c1.3579102,0,2.1400146-0.1648102,2.6746826-0.4936981
			c0.7001953-0.4526062,1.1118164-1.1528015,1.1118164-2.0998993c0-0.9462128-0.4116211-1.6464081-1.1118164-2.0991058
			c-0.534668-0.3296051-1.3167725-0.4936066-2.6746826-0.4936066c-3.6642151,0-5.3517151-2.1819-5.3517151-5.8863907V4.8574109
			c0-1.4407043-0.0826721-2.0171051-0.5354004-2.7575989c-0.4525757-0.7412032-1.3577881-1.2766036-2.469574-1.2766036
			c-1.1118164,0-2.0169983,0.5354004-2.4696045,1.2766036c-0.4526978,0.7404938-0.5346985,1.3168945-0.5346985,2.7575989v44.0460968
			C424.665802,54.9129143,428.0816956,59.7704124,434.9559937,59.7704124z"/>
		<path class="st2" d="M476.5123901,53.3075066c0-1.3578949-1.2758179-2.592804-2.5523071-2.592804
			c-0.9060059,0-1.522644,0.3699036-2.7993164,1.4407043c-2.4285889,2.0581055-5.5567017,2.9223022-8.6854858,2.9223022
			c-7.8206177,0-12.0194702-5.186203-12.0194702-14.0366974h23.9157715c0.9470215,0,1.8522949,0,2.6345215-0.7822037
			c0.7821655-0.7823029,0.8231812-1.8934021,0.8231812-2.7165985c-0.0819702-11.2791977-6.3388672-18.7711029-16.6298828-18.7711029
			c-10.2081909,0-16.7119141,7.368103-16.7119141,20.7463989c0,14.3254013,6.9973145,20.7472,17.7409058,20.7472
			c4.1578979,0,7.6564941-0.9059906,10.0852051-2.3466034C473.9190063,56.9300041,476.5123901,55.1187096,476.5123901,53.3075066z
			 M451.7324219,29.9265099c1.480896-3.6634979,5.0623779-6.0512009,9.46698-6.0512009
			c4.4046631,0,7.9450684,2.3467026,9.4677734,6.0512009c0.9060059,2.2229004,1.1520996,3.7045975,1.2758179,6.5858994h-21.4871826
			C450.5795898,33.6311073,450.826416,32.1494102,451.7324219,29.9265099z"/>
		<path class="st2" d="M186.7608185,96.1605072c-4.4457092,0-8.0681152,0.9880066-11.4438019,5.1869049V82.2467194
			c0-1.4406128-0.0820007-2.0171051-0.5345917-2.7575073c-0.4526062-0.7411957-1.3587036-1.2765961-2.4697113-1.2765961
			c-1.1118011,0-2.0169983,0.5354004-2.4696045,1.2765961c-0.4533997,0.7404022-0.5354004,1.3168945-0.5354004,2.7575073v51.2084961
			c0,1.4405975,0.0820007,2.0169983,0.5354004,2.758194c0.4526062,0.740509,1.3578033,1.2759094,2.4696045,1.2759094
			c1.1110077,0,2.0171051-0.5354004,2.4697113-1.2759094c0.4525909-0.7411957,0.5345917-1.3175964,0.5345917-2.758194v-1.1529083
			c3.3756866,4.2810059,6.9152985,5.3518066,11.4438019,5.3518066c4.1987915,0,7.7384949-1.399704,9.879303-3.5404968
			c4.1160889-4.1162109,5.0213928-10.7028046,5.0213928-17.2067108c0-6.503891-0.905304-13.0896912-5.0213928-17.2066956
			C194.4993134,97.5601196,190.95961,96.1605072,186.7608185,96.1605072z M185.4842072,132.3023071
			c-8.8495941,0-10.1671906-7.4917908-10.1671906-15.395401c0-7.9034882,1.3175964-15.395401,10.1671906-15.395401
			c8.8503113,0,10.1679077,7.4919128,10.1679077,15.395401
			C195.6521149,124.8105164,194.3345184,132.3023071,185.4842072,132.3023071z"/>
		<path class="st2" d="M215.1421051,77.3894196c-2.2638855,0-4.0751953,1.8112946-4.0751953,4.0750885
			c0,2.2647095,1.8113098,4.0758972,4.0751953,4.0758972c2.2644958,0,4.0750122-1.8111877,4.0750122-4.0758972
			C219.2171173,79.2007141,217.406601,77.3894196,215.1421051,77.3894196z"/>
		<path class="st2" d="M215.1421051,96.3253174c-1.1117859,0-2.0170898,0.5346985-2.4696655,1.2758942
			c-0.4526367,0.7411957-0.534729,1.3175049-0.534729,2.758194v33.0958099c0,1.4405975,0.0820923,2.0169983,0.534729,2.758194
			c0.4525757,0.740509,1.3578796,1.2759094,2.4696655,1.2759094c1.1116943,0,2.0169983-0.5354004,2.4696045-1.2759094
			c0.4526062-0.7411957,0.5354004-1.3175964,0.5354004-2.758194v-33.0958099c0-1.4406891-0.0827942-2.0169983-0.5354004-2.758194
			S216.2537994,96.3253174,215.1421051,96.3253174z"/>
		<path class="st2" d="M247.8972015,96.1605072c-4.4456787,0-8.0680847,0.9880066-11.4437866,5.1869049V82.2467194
			c0-1.4406128-0.0820007-2.0171051-0.5346069-2.7575073c-0.4526062-0.7411957-1.3585815-1.2765961-2.469696-1.2765961
			c-1.1117859,0-2.0169983,0.5354004-2.4696045,1.2765961c-0.4533997,0.7404022-0.5354004,1.3168945-0.5354004,2.7575073v51.2084961
			c0,1.4405975,0.0820007,2.0169983,0.5354004,2.758194c0.4526062,0.740509,1.3578186,1.2759094,2.4696045,1.2759094
			c1.1111145,0,2.0170898-0.5354004,2.469696-1.2759094c0.4526062-0.7411957,0.5346069-1.3175964,0.5346069-2.758194v-1.1529083
			c3.3757019,4.2810059,6.9154053,5.3518066,11.4437866,5.3518066c4.198822,0,7.7385254-1.399704,9.8792877-3.5404968
			c4.1162109-4.1162109,5.0214233-10.7028046,5.0214233-17.2067108c0-6.503891-0.9052124-13.0896912-5.0214233-17.2066956
			C255.6357269,97.5601196,252.0960236,96.1605072,247.8972015,96.1605072z M246.6206207,132.3023071
			c-8.8496094,0-10.1672058-7.4917908-10.1672058-15.395401c0-7.9034882,1.3175964-15.395401,10.1672058-15.395401
			c8.8504028,0,10.167984,7.4919128,10.167984,15.395401C256.7886047,124.8105164,255.4710236,132.3023071,246.6206207,132.3023071z
			"/>
		<path class="st2" d="M287.243988,132.4671173c-0.5346985-0.3296051-1.3168945-0.4936066-2.6746826-0.4936066
			c-3.6642151,0-5.3517151-2.1819-5.3517151-5.8865051V82.2467194c0-1.4406128-0.0827942-2.0171051-0.5354004-2.7575073
			c-0.4526062-0.7411957-1.3578796-1.2765961-2.4696045-1.2765961c-1.1118774,0-2.0170898,0.5354004-2.469696,1.2765961
			c-0.4526062,0.7404022-0.5346985,1.3168945-0.5346985,2.7575073v44.0460968
			c0,6.009491,3.4160156,10.8668976,10.2903137,10.8668976h1.0708008c1.3577881,0,2.1399841-0.1647949,2.6746826-0.4936981
			c0.7001038-0.4526062,1.1118164-1.1528015,1.1118164-2.0997009
			C288.3558044,133.6200104,287.9440918,132.9198151,287.243988,132.4671173z"/>
		<path class="st2" d="M299.5087891,77.3894196c-2.2638855,0-4.0751038,1.8112946-4.0751038,4.0750885
			c0,2.2647095,1.8112183,4.0758972,4.0751038,4.0758972c2.2646179,0,4.0750122-1.8111877,4.0750122-4.0758972
			C303.5838013,79.2007141,301.773407,77.3894196,299.5087891,77.3894196z"/>
		<path class="st2" d="M299.5087891,96.3253174c-1.1117859,0-2.0170898,0.5346985-2.469696,1.2758942
			s-0.534668,1.3175049-0.534668,2.758194v33.0958099c0,1.4405975,0.0820618,2.0169983,0.534668,2.758194
			c0.4526062,0.740509,1.3579102,1.2759094,2.469696,1.2759094c1.1116943,0,2.0169983-0.5354004,2.469635-1.2759094
			c0.4525757-0.7411957,0.5353699-1.3175964,0.5353699-2.758194v-33.0958099c0-1.4406891-0.0827942-2.0169983-0.5353699-2.758194
			C301.5257874,96.8600159,300.6204834,96.3253174,299.5087891,96.3253174z"/>
		<path class="st2" d="M329.390686,96.1605072c-4.93927,0-8.8502808,1.8113098-11.6495972,4.6105042
			c-4.1980896,4.2810059-4.9802856,9.8789062-4.9802856,16.1358948c0,6.2161102,0.782196,11.8556061,4.9802856,16.1366119
			c2.7993164,2.7993011,6.7103271,4.6105957,11.6495972,4.6105957c4.9393005,0,8.8504028-1.8112946,11.6495972-4.6105957
			c4.1981201-4.2810059,4.9803162-9.9205017,4.9803162-16.1366119c0-6.2569885-0.782196-11.8548889-4.9803162-16.1358948
			C338.2410889,97.971817,334.3299866,96.1605072,329.390686,96.1605072z M336.7175903,129.3800201
			c-1.9759827,1.9759979-4.3218994,2.922287-7.3269043,2.922287s-5.3508911-0.9462891-7.3269043-2.922287
			c-2.840271-2.8404083-3.2928772-7.7805023-3.2928772-12.473114c0-4.6925964,0.4526062-9.5909882,3.2928772-12.4312897
			c1.9760132-1.9761047,4.3218994-2.9641113,7.3269043-2.9641113s5.3509216,0.9880066,7.3269043,2.9641113
			c2.8403015,2.8403015,3.2929077,7.7386932,3.2929077,12.4312897
			C340.010498,121.5995178,339.5578918,126.5396118,336.7175903,129.3800201z"/>
		<path class="st2" d="M369.1424866,101.2647095c1.1118164,0,1.6874084-0.0820923,2.1811218-0.4115906
			c0.7001953-0.4117126,0.988678-1.0700989,0.988678-1.8934021c0-0.8231049-0.2884827-1.4822998-0.988678-1.8939056
			c-0.4937134-0.3289032-1.0693054-0.4116974-2.1811218-0.4116974h-5.9690857v-8.6849976
			c0-1.4414062-0.0820007-2.0169983-0.5346069-2.7583008c-0.4526978-0.7411957-1.3586121-1.2758026-2.469696-1.2758026
			c-1.1116943,0-2.0169983,0.5346069-2.469696,1.2758026c-0.4525146,0.7413025-0.5353088,1.3168945-0.5353088,2.7583008v8.6849976
			h-2.8403015c-1.111084,0-1.6881104,0.0827942-2.1817932,0.4116974c-0.7001953,0.4116058-0.9880066,1.0708008-0.9880066,1.8939056
			c0,0.8233032,0.2878113,1.4816895,0.9880066,1.8934021c0.4936829,0.3294983,1.0707092,0.4115906,2.1817932,0.4115906h2.8403015
			v25.0281067c0,6.009491,3.4165955,10.8668976,10.2910156,10.8668976h1.0699768
			c1.3586121,0,2.1408081-0.1647949,2.675415-0.4936981c0.7001953-0.4526062,1.1117859-1.1528015,1.1117859-2.0997009
			c0-0.9463043-0.4115906-1.6464996-1.1117859-2.0991974c-0.5346069-0.3296051-1.316803-0.4936066-2.675415-0.4936066
			c-3.6634827,0-5.3516846-2.1819-5.3516846-5.8865051v-24.8222961H369.1424866z"/>
		<path class="st2" d="M398.6047974,96.1605072c-4.6105042,0-8.3970032,1.6464996-11.3609924,4.9394073V82.2467194
			c0-1.4406128-0.0828247-2.0171051-0.5354004-2.7575073c-0.4526062-0.7411957-1.3579102-1.2765961-2.469696-1.2765961
			c-1.1118164,0-2.0170288,0.5354004-2.4696045,1.2765961c-0.4526978,0.7404022-0.5346985,1.3168945-0.5346985,2.7575073v51.2084961
			c0,1.4405975,0.0820007,2.0169983,0.5346985,2.758194c0.4525757,0.740509,1.3577881,1.2759094,2.4696045,1.2759094
			c1.1117859,0,2.0170898-0.5354004,2.469696-1.2759094c0.4525757-0.7411957,0.5354004-1.3175964,0.5354004-2.758194V112.132309
			c0-7.1212921,3.9512939-10.6208038,10.1261902-10.6208038c6.1748047,0,9.879303,3.4995117,9.879303,10.6208038v21.3229065
			c0,1.4405975,0.0820007,2.0169983,0.5346985,2.758194c0.4526062,0.740509,1.3586121,1.2759094,2.4696045,1.2759094
			c1.1118164,0,2.0170898-0.5354004,2.4696045-1.2759094c0.4533997-0.7411957,0.5361938-1.3175964,0.5361938-2.758194v-22.3108978
			C413.2593994,102.0059052,407.8659973,96.1605072,398.6047974,96.1605072z"/>
		<path class="st2" d="M439.8381958,96.1605072c-10.2088928,0-16.712616,7.368103-16.712616,20.7463989
			c0,14.3254089,6.9980164,20.7472076,17.7409363,20.7472076c4.1577759,0,7.6564941-0.9060059,10.085083-2.3466949
			c1.6054688-0.9880066,4.1989136-2.7993011,4.1989136-4.6105042c0-1.3578949-1.2758179-2.592804-2.5524292-2.592804
			c-0.9052734,0-1.522644,0.3699036-2.7991943,1.4407043c-2.4287109,2.0580902-5.5559692,2.9223022-8.6848145,2.9223022
			c-7.8205872,0-12.0201721-5.186203-12.0201721-14.0368042h23.915802c0.9469604,0,1.8529663,0,2.6351929-0.782196
			c0.7821655-0.7822113,0.8231812-1.8933105,0.8231812-2.716507C456.385437,103.65242,450.128479,96.1605072,439.8381958,96.1605072
			z M429.0939026,113.9018097c0.1237793-2.8813019,0.3706055-4.3629913,1.2765808-6.5858917
			c1.4815979-3.6634979,5.0631104-6.0512085,9.4677124-6.0512085c4.4047241,0,7.944397,2.3467102,9.46698,6.0512085
			c0.9053345,2.2229004,1.152832,3.7045898,1.2759399,6.5858917H429.0939026z"/>
		<path class="st2" d="M481.7052002,96.1605072c-10.2089233,0-16.7127075,7.368103-16.7127075,20.7463989
			c0,14.3254089,6.9981079,20.7472076,17.7409058,20.7472076c4.1578979,0,7.6566162-0.9060059,10.0852051-2.3466949
			c1.6054077-0.9880066,4.1989136-2.7993011,4.1989136-4.6105042c0-1.3578949-1.2759399-2.592804-2.5524292-2.592804
			c-0.9052734,0-1.5227051,0.3699036-2.7993164,1.4407043c-2.4285889,2.0580902-5.5559692,2.9223022-8.6847534,2.9223022
			c-7.8206177,0-12.0201416-5.186203-12.0201416-14.0368042h23.9158325c0.9468994,0,1.8529663,0,2.6350708-0.782196
			c0.7822266-0.7822113,0.8233032-1.8933105,0.8233032-2.716507
			C498.2523193,103.65242,491.9954224,96.1605072,481.7052002,96.1605072z M470.9608765,113.9018097
			c0.1237183-2.8813019,0.3706055-4.3629913,1.2765503-6.5858917c1.4816895-3.6634979,5.0630493-6.0512085,9.4677734-6.0512085
			c4.4046021,0,7.9442749,2.3467102,9.46698,6.0512085c0.9052124,2.2229004,1.152832,3.7045898,1.2758179,6.5858917H470.9608765z"/>
		<path class="st2" d="M538.9174194,132.0965118l-12.5548096-19.7993927l9.4259644-10.7438049
			c1.152832-1.3177032,1.4414062-2.0171051,1.4414062-2.7584076c0-0.8230896-0.3705444-1.4405975-0.9880981-1.9759979
			c-0.4943848-0.4115906-1.1519775-0.6584015-1.729187-0.6584015c-1.0281982,0-1.6873779,0.4526062-2.84021,1.7703094
			l-17.3292847,19.7583008V82.2467194c0-1.4406128-0.0827637-2.0171051-0.5354004-2.7575073
			c-0.4526978-0.7411957-1.3579102-1.2765961-2.4697266-1.2765961c-1.1117554,0-2.0169678,0.5354004-2.4696655,1.2765961
			c-0.4526367,0.7404022-0.5346069,1.3168945-0.5346069,2.7575073v51.2084961c0,1.4405975,0.0819702,2.0169983,0.5346069,2.758194
			c0.4526978,0.740509,1.3579102,1.2759094,2.4696655,1.2759094c1.1118164,0,2.0170288-0.5354004,2.4697266-1.2759094
			c0.4526367-0.7411957,0.5354004-1.3175964,0.5354004-2.758194v-7.9855957l7.8623047-8.9333038l11.772583,18.6481018
			c0.9873047,1.5636902,1.7283936,2.3049011,3.0043335,2.3049011c0.5360718,0,1.0296631-0.1238098,1.5643921-0.452713
			c0.9469604-0.5764008,1.4002686-1.4405975,1.4002686-2.3875885
			C539.9470825,133.9078064,539.6176147,133.208313,538.9174194,132.0965118z"/>
		<path class="st2" d="M124.6261063,3.7868085c-0.5243988-2.096199-2.6506042-3.3684006-4.7453003-2.8469009
			c-2.0960999,0.5243988-3.3703918,2.6483994-2.8468018,4.7453003l18.1313095,72.5269012l-18.1313095,72.5276031
			c-0.5235901,2.0968933,0.7507019,4.2209015,2.8468018,4.7453003c0.3186188,0.0791016,0.6380005,0.1172028,0.9522095,0.1172028
			c1.7532959,0,3.3484955-1.1865082,3.7930908-2.9641113l18.3686142-73.4767914
			c0.1551971-0.6233063,0.1551971-1.2752075,0-1.8984985L124.6261063,3.7868085z"/>
		<path class="st2" d="M13.5928116,104.483017c-0.5345001-0.9615021-1.6769028-2.6569977-1.6769028-9.5267029
			c0-6.0948944-0.0056-15.2868958-0.0056-21.6423035c0-16.9722023-0.1137009-18.0137062,1.1243057-20.8150063
			c0.8958969-2.0319977,2.1691971-2.9657974,2.380394-3.1975937c0.2097015-0.2330017,0.1850052-0.4033051,0.0656052-0.5229034
			c-0.1428986-0.1456985-0.3728027-0.1572952-0.8143997-0.1572952c-0.4412003,0-2.7619019,0.4077988-6.4224014,0.4077988
			c-4.4065013,0-5.755302-0.3102036-6.7779002-0.3102036c-0.0712967,0-0.4559021-0.0086975-0.4559021,0.2870026
			c0,0.1369019,0.1152039,0.3015976,0.1659012,0.3582993c0.7401047,0.7983017,2.9689026,2.3380051,2.9746017,7.1772995
			c0.0059967,5.4743958,0.1222992,15.9611092,0.1222992,16.7696114c0.0059967,0.6947937-0.1163025,12.636795-0.1163025,21.6160889
			c0,6.8872986-0.8144989,8.2739105-1.5355988,9.3809967c-0.6771014,1.0547028-1.7013016,1.8706055-2.3758011,2.4007111
			c-0.2678986,0.2097931-0.2445984,0.4021912-0.2445984,0.4837036c0,0.2272949,0.2273026,0.3438873,0.4063034,0.3438873
			c0.3248978,0,3.8542938-0.5128021,7.8369975-0.5128021c1.8383026,0,7.2192993,0.4776001,7.3926086,0.489212
			c0.2171936,0.0116882,0.3728867-0.1339111,0.3728867-0.3377075c0-0.2449036-0.0772934-0.3089905-0.2025986-0.4313965
			C15.4398117,106.3768158,14.1710129,105.5203094,13.5928116,104.483017z"/>
		<path class="st2" d="M81.084816,75.1480103c-0.9191132-0.1672974-1.3693085-0.2037048-1.3778992-0.3638916
			c-0.0177002-0.2987061,0.9483948-0.5582123,2.2052002-1.1278076c1.7144928-0.7731934,3.8179932-2.1687927,5.2413025-3.5921936
			c1.7174835-1.7217102,3.5673828-4.6235046,3.5673828-8.3321114c0-4.2901001-0.990799-7.1596985-3.9578857-10.1287994
			c-3.2732086-3.272995-10.3044891-3.1623001-11.9300995-3.1623001c-2.1996002,0-10.0540009,0.1936035-11.3549042,0.1936035
			c-0.6322021,0-2.1426086,0.1282959-3.8630981,0.1282959c-1.7610016,0-3.6604004,0.045105-4.790802-0.0712967
			c-0.3162079-0.0322037-0.5203094,0.0886002-0.569809,0.2840958c-0.0479889,0.1965027,0.088913,0.4761047,0.1459045,0.5841064
			c0.4149017,0.7851944,0.9060059,2.2403946,0.9060059,3.7524033c0,1.5457001,0.1501007,18.3806038,0.1501007,19.8665962
			c0,1.4887085-0.0424042,29.9002075-0.0424042,30.2089996c0,0.0641022,0.0176086,0.4138031-0.1369019,0.5653076
			c-0.2738953,0.279892-2.2490997,0.1981964-2.8246002,0.1282959c-1.2350006-0.1399078-3.3386002-0.6936035-5.2481995-2.3950043
			c-1.2644958-1.1243896-3.4990005-3.3679047-11.2614975-13.6114044
			c-1.5571899-2.0510864-12.0891037-15.8895874-13.069397-17.583786c-0.0480042-0.0845032-0.0597-0.122406-0.0597-0.144104
			c0-0.0263062,0.0056992-0.080307,0.0435944-0.1370087c0.9308014-1.327301,12.3251038-11.3273964,12.9396057-11.9086037
			c1.5121994-1.4263,10.5727081-8.6966934,10.9118958-9.0403976c0.0904007-0.0858994,0.2814026-0.2798004,0.2025986-0.4981995
			c-0.0524979-0.157196-0.1485977-0.2111969-0.7690964-0.2111969c-0.626503,0-3.0009003,0.1455994-4.549202,0.1966019
			c-2.0742035,0.0655975-3.7974014,0.082901-4.2637024,0.082901c-0.4617844,0-0.6175003,0.2156982-0.8113937,0.4067001
			c-0.4048004,0.4077988-3.7378006,4.9191971-9.1348038,10.8944931c-5.0356979,5.5792122-9.112999,10.0804024-12.1210022,12.9181099
			c-0.0975876,0.0919952-0.074295,0.2870026,0.077301,0.4922943c1.6927032,2.2581024,9.4698029,13.1571045,10.9280014,15.2257996
			c5.5672989,7.8834076,11.1246033,14.9571991,12.1457977,16.1461029c1.0399017,1.2118073,1.947403,1.8878021,2.9235001,2.144104
			c1.1477051,0.3087921,1.9766998,0.3961945,3.1435013,0.3961945c1.4624023,0,9.4217987-0.1631927,10.8856964-0.2097931
			c1.473999-0.040802,5.7729034,0.0349884,7.1551056,0.0349884c0.2650909,0,0.5330048,0.0059052,0.7153015-0.1804962
			c0.2082062-0.2097931,0.1734009-0.5769958,0.1734009-0.8448944c0-1.1421051-0.2536011-31.9425964-0.2536011-33.0557098
			c0-1.1156921,0.0715942-18.4810982,0.0715942-19.7847939c0-0.1940002-0.0090027-0.6979065,0.227005-0.9338074
			c0.2565918-0.2565918,0.8318024-0.2359924,0.9396973-0.2389984c0.5957947-0.0056915,1.5205994-0.0450897,4.116394-0.0450897
			c4.137207,0,6.5333099,0.1470947,9.1407166,1.3633881c4.0220032,1.8778076,5.3970032,5.4509125,5.3970032,9.1147003
			c0,6.059803-4.7195129,9.5589027-8.2944183,10.4184151c-0.920578,0.2198944-2.5112915,0.5387878-4.1934967,0.6772003
			c-0.1313019,0.0115967-0.2987061,0.0975952-0.3759918,0.2082977c-0.1019135,0.134201-0.1166077,0.3424988-0.1166077,0.662796
			c0,0.5695953-0.0334015,1.2077026-0.0334015,2.4284973c0,0.3874969-0.0146027,0.5724945,0.1166992,0.7238007
			c0.1470032,0.1676025,0.3012085,0.201004,0.7106018,0.201004c5.1902008,0,10.2169952,1.1100922,12.8070984,3.7003021
			c2.8988953,2.9015961,3.6417084,6.5608978,3.6417084,8.6994019c0,5.9200897-2.9468994,9.0256958-3.7130127,9.7888947
			c-4.3468933,4.3470001-10.2957916,3.7993011-10.697998,3.7993011c-0.608902,0-0.8564911,0.227005-0.8417969,0.5765991
			c0.0232086,0.6295013,0.032196,1.1421051,0.032196,2.0278015c0,0.8740997,0.2867126,0.9904938,0.4603119,1.0429993
			c0.5098877,0.1459045,1.9984894,0.0818024,3.5614014,0.0059052c6.3101959-0.3203125,9.8921967-1.6665039,13.4843903-4.2479095
			c3.0853119-2.2198944,5.6026001-7.4933014,5.6739044-12.0789948c0.102005-6.5027008-2.1954041-9.3986053-3.6184082-10.9747009
			C88.0782089,76.3643188,83.3587112,75.5648193,81.084816,75.1480103z"/>
	</g>
</g>
<g id="Goud">
	<g>
		<path class="st2" d="M172.3127136,60.0999107c1.0700073,0,2.0171051-0.5354004,2.4697113-1.2758026
			c0.4114838-0.7001953,0.5345917-1.2765961,0.5345917-2.7583008V34.907711c0-7.1220016,3.9520111-10.7854996,10.1262054-10.7854996
			c6.1748962,0,9.9210815,3.581398,9.9210815,10.7854996v21.1580963c0,1.4817047,0.1230164,2.0581055,0.5346985,2.7583008
			c0.411499,0.7404022,1.3996277,1.2758026,2.4696045,1.2758026c1.0708313,0,2.0169983-0.5354004,2.4696045-1.2758026
			c0.4117126-0.7001953,0.5354004-1.2765961,0.5354004-2.7583008V33.8780098c0-4.6927032-1.3175049-8.5210037-4.1987915-11.319603
			c-2.5107117-2.4703979-6.0921021-3.7873001-10.4967957-3.7873001c-4.4866943,0-8.4380035,1.6875-11.3610077,4.9393997v-0.7403946
			c0-1.4407043-0.0820007-2.0171051-0.5345917-2.7583008c-0.4526062-0.7413025-1.3587036-1.2759018-2.4697113-1.2759018
			c-1.1118011,0-2.0169983,0.5345993-2.4696045,1.2759018c-0.4533997,0.7411957-0.5354004,1.3175964-0.5354004,2.7583008v33.0956955
			c0,1.4817047,0.1237183,2.0581055,0.5354004,2.7583008C170.2957153,59.5645103,171.2419128,60.0999107,172.3127136,60.0999107z"/>
		<path class="st2" d="M236.5303192,56.0658073c0,1.4405975,0.0827942,2.0171051,0.5354004,2.7583008
			c0.4526062,0.7404022,1.3578796,1.2758026,2.469696,1.2758026c1.1117859,0,2.0169983-0.5354004,2.4696045-1.2758026
			c0.4526978-0.7411957,0.5346985-1.3177032,0.5346985-2.7583008V32.3142052
			c0-8.8504944-5.4330139-13.5430984-15.8887024-13.5430984c-4.3218994,0-7.4909973,0.7822037-10.4140015,2.6344986
			c-2.3876953,1.5645065-3.8692932,3.0461044-3.8692932,4.5278015c0,0.8650055,0.2879028,1.3586044,0.7411804,1.8940048
			c0.4526062,0.4936981,1.1520996,0.7404938,1.8105164,0.7404938c0.6590881,0,1.6054077-0.2467957,2.5105896-1.0700989
			c2.7173157-2.469696,5.0229187-3.5814972,9.1799927-3.5814972c7.0801086,0,9.9613037,3.169899,9.9613037,9.3442001v3.2937012
			h-12.2668762c-8.8086243,0-13.9947205,4.6097946-13.9947205,11.7317963c0,3.2929993,1.15271,6.2563019,3.0870056,8.273407
			c2.5523987,2.5934906,5.9273987,3.7052917,11.5257874,3.7052917c5.2279358,0,8.314209-1.0708008,11.6078186-4.2809906V56.0658073z
			 M234.4723053,52.4433098c-2.5113831,2.4286041-5.5567017,2.758194-8.9322815,2.758194
			c-6.2980042,0-9.3448181-2.3466949-9.3448181-6.9571915c0-4.6516037,2.9648132-7.1623001,8.7683105-7.1623001h11.6077881
			v4.3219986C236.5713043,48.8617058,235.8719025,51.0846062,234.4723053,52.4433098z"/>
		<path class="st2" d="M267.5467834,23.875309c1.1117249,0,1.6874084-0.0820007,2.1811218-0.4115982
			c0.7001038-0.4115982,0.988678-1.0700989,0.988678-1.8933029c0-0.8231964-0.2885742-1.482399-0.988678-1.8939972
			c-0.4937134-0.3289032-1.069397-0.411705-2.1811218-0.411705h-5.9690857v-8.6849966
			c0-1.4413986-0.0820007-2.0169983-0.5346069-2.7583013c-0.4526672-0.7411957-1.3585815-1.275795-2.4696655-1.275795
			c-1.1118164,0-2.0169983,0.5345993-2.4697266,1.275795c-0.4525909,0.741303-0.5353851,1.3169026-0.5353851,2.7583013v8.6849966
			h-2.84021c-1.111084,0-1.6880798,0.0828018-2.1817932,0.411705c-0.7001953,0.4115982-0.9880066,1.0708008-0.9880066,1.8939972
			c0,0.823204,0.2878113,1.4817047,0.9880066,1.8933029c0.4937134,0.3295975,1.0707092,0.4115982,2.1817932,0.4115982h2.84021
			v25.0281982c0,6.009407,3.4166718,10.8669052,10.2910919,10.8669052h1.0700073c1.35849,0,2.1407776-0.1648102,2.6753845-0.4936981
			c0.7001953-0.4526062,1.1117859-1.1528015,1.1117859-2.0998993c0-0.9462128-0.4115906-1.6464081-1.1117859-2.0991058
			c-0.5346069-0.3296051-1.3168945-0.4936066-2.6753845-0.4936066c-3.6635132,0-5.3517151-2.1819-5.3517151-5.8863907V23.875309
			H267.5467834z"/>
		<path class="st2" d="M282.7579956,8.1510134c2.263916,0,4.0751038-1.8112035,4.0751038-4.0758061
			c0-2.2639999-1.8111877-4.0751953-4.0751038-4.0751953c-2.2637939,0-4.0750122,1.8111954-4.0750122,4.0751953
			C278.6829834,6.3398099,280.4942017,8.1510134,282.7579956,8.1510134z"/>
		<path class="st2" d="M282.7579956,18.9359093c-1.1109924,0-2.0169983,0.5345993-2.469574,1.2759018
			c-0.4534302,0.7411957-0.5354309,1.3175964-0.5354309,2.7583008v33.0956955c0,1.4405975,0.0820007,2.0171051,0.5354309,2.7583008
			c0.4525757,0.7404022,1.3585815,1.2758026,2.469574,1.2758026c1.1111145,0,2.0170898-0.5354004,2.4704285-1.2758026
			c0.4525757-0.7411957,0.5345764-1.3177032,0.5345764-2.7583008V22.9701118c0-1.4407043-0.0820007-2.0171051-0.5345764-2.7583008
			C284.7750854,19.4705086,283.8691101,18.9359093,282.7579956,18.9359093z"/>
		<path class="st2" d="M329.2698975,39.5175056c0-6.2569962-0.7814941-11.8548965-4.9811096-16.1357956
			c-2.7992859-2.7993011-6.7088013-4.6106033-11.6488037-4.6106033c-4.940094,0-8.8495789,1.8113022-11.6488953,4.6106033
			c-4.1987915,4.280899-4.9810791,9.8787994-4.9810791,16.1357956c0,6.2160034,0.7822876,11.8557053,4.9810791,16.1366043
			c2.7993164,2.7993927,6.7088013,4.6105957,11.6488953,4.6105957c4.9400024,0,8.8495178-1.811203,11.6488037-4.6105957
			C328.4884033,51.3732109,329.2698975,45.7335091,329.2698975,39.5175056z M319.9668884,51.990612
			c-1.9752808,1.9759979-4.3218994,2.9223022-7.3269043,2.9223022c-3.0050964,0-5.3516846-0.9463043-7.3269958-2.9223022
			c-2.8401794-2.8403015-3.2935791-7.7805023-3.2935791-12.4731064c0-4.6925964,0.4533997-9.5909958,3.2935791-12.4312973
			c1.9753113-1.9760971,4.3218994-2.9639969,7.3269958-2.9639969c3.0050049,0,5.3516235,0.9878998,7.3269043,2.9639969
			c2.8403015,2.8403015,3.2936096,7.7387009,3.2936096,12.4312973
			C323.260498,44.2101097,322.8071899,49.1503105,319.9668884,51.990612z"/>
		<path class="st2" d="M365.7120056,34.907711v21.1580963c0,1.4817047,0.1236877,2.0581055,0.5352783,2.7583008
			c0.4116211,0.7404022,1.3997192,1.2758026,2.469696,1.2758026c1.0700073,0,2.0170288-0.5354004,2.4704285-1.2758026
			c0.4115906-0.7001953,0.5345764-1.2765961,0.5345764-2.7583008V33.8780098c0-4.6927032-1.3168945-8.5210037-4.1980896-11.319603
			c-2.5114136-2.4703979-6.092804-3.7873001-10.4967957-3.7873001c-4.4866943,0-8.4386902,1.6875-11.3609924,4.9393997v-0.7403946
			c0-1.4407043-0.0827026-2.0171051-0.5354004-2.7583008c-0.4533997-0.7413025-1.3586121-1.2759018-2.4703979-1.2759018
			c-1.1110229,0-2.0169983,0.5345993-2.4696045,1.2759018c-0.4526062,0.7411957-0.5346985,1.3175964-0.5346985,2.7583008v33.0956955
			c0,1.4817047,0.1230774,2.0581055,0.5346985,2.7583008c0.4526062,0.7404022,1.4002991,1.2758026,2.4696045,1.2758026
			c1.0708008,0,2.0169983-0.5354004,2.4703979-1.2758026c0.4115906-0.7001953,0.5354004-1.2765961,0.5354004-2.7583008V34.907711
			c0-7.1220016,3.9512939-10.7854996,10.1261902-10.7854996C361.9664001,24.1222115,365.7120056,27.7036095,365.7120056,34.907711z"
			/>
		<path class="st2" d="M394.6535034,36.5542107c-8.8092957,0-13.9962158,4.6097946-13.9962158,11.7317963
			c0,3.2929993,1.1528015,6.2563019,3.0877991,8.273407c2.5516968,2.5934906,5.9273376,3.7052917,11.525116,3.7052917
			c5.2277832,0,8.3157043-1.0708008,11.60849-4.2809906v0.0820923c0,1.4405975,0.0820007,2.0171051,0.534729,2.7583008
			c0.4532776,0.7404022,1.3592834,1.2758026,2.4703674,1.2758026c1.1109924,0,2.0169983-0.5354004,2.469635-1.2758026
			c0.4532776-0.7411957,0.5353699-1.3177032,0.5353699-2.7583008V32.3142052
			c0-8.8504944-5.4336853-13.5430984-15.8887024-13.5430984c-4.3226013,0-7.4924927,0.7822037-10.4146729,2.6344986
			c-2.3877258,1.5645065-3.8693237,3.0461044-3.8693237,4.5278015c0,0.8650055,0.2878113,1.3586044,0.740387,1.8940048
			c0.4526978,0.4936981,1.1529236,0.7404938,1.8120117,0.7404938c0.6577148,0,1.6054077-0.2467957,2.5107117-1.0700989
			c2.7164001-2.469696,5.0213013-3.5814972,9.1791992-3.5814972c7.0800781,0,9.9613037,3.169899,9.9613037,9.3442001v3.2937012
			H394.6535034z M406.9197083,45.4040108c0,3.457695-0.7002258,5.6805954-2.098999,7.039299
			c-2.5107117,2.4286041-5.5575256,2.758194-8.9324036,2.758194c-6.2987061,0-9.3439026-2.3466949-9.3439026-6.9571915
			c0-4.6516037,2.9631958-7.1623001,8.7674866-7.1623001h11.6078186V45.4040108z"/>
		<path class="st2" d="M434.9559937,59.7704124h1.0708008c1.3579102,0,2.1400146-0.1648102,2.6746826-0.4936981
			c0.7001953-0.4526062,1.1118164-1.1528015,1.1118164-2.0998993c0-0.9462128-0.4116211-1.6464081-1.1118164-2.0991058
			c-0.534668-0.3296051-1.3167725-0.4936066-2.6746826-0.4936066c-3.6642151,0-5.3517151-2.1819-5.3517151-5.8863907V4.8574109
			c0-1.4407043-0.0826721-2.0171051-0.5354004-2.7575989c-0.4525757-0.7412032-1.3577881-1.2766036-2.469574-1.2766036
			c-1.1118164,0-2.0169983,0.5354004-2.4696045,1.2766036c-0.4526978,0.7404938-0.5346985,1.3168945-0.5346985,2.7575989v44.0460968
			C424.665802,54.9129143,428.0816956,59.7704124,434.9559937,59.7704124z"/>
		<path class="st2" d="M476.5123901,53.3075066c0-1.3578949-1.2758179-2.592804-2.5523071-2.592804
			c-0.9060059,0-1.522644,0.3699036-2.7993164,1.4407043c-2.4285889,2.0581055-5.5567017,2.9223022-8.6854858,2.9223022
			c-7.8206177,0-12.0194702-5.186203-12.0194702-14.0366974h23.9157715c0.9470215,0,1.8522949,0,2.6345215-0.7822037
			c0.7821655-0.7823029,0.8231812-1.8934021,0.8231812-2.7165985c-0.0819702-11.2791977-6.3388672-18.7711029-16.6298828-18.7711029
			c-10.2081909,0-16.7119141,7.368103-16.7119141,20.7463989c0,14.3254013,6.9973145,20.7472,17.7409058,20.7472
			c4.1578979,0,7.6564941-0.9059906,10.0852051-2.3466034C473.9190063,56.9300041,476.5123901,55.1187096,476.5123901,53.3075066z
			 M451.7324219,29.9265099c1.480896-3.6634979,5.0623779-6.0512009,9.46698-6.0512009
			c4.4046631,0,7.9450684,2.3467026,9.4677734,6.0512009c0.9060059,2.2229004,1.1520996,3.7045975,1.2758179,6.5858994h-21.4871826
			C450.5795898,33.6311073,450.826416,32.1494102,451.7324219,29.9265099z"/>
		<path class="st2" d="M186.7608185,96.1605072c-4.4457092,0-8.0681152,0.9880066-11.4438019,5.1869049V82.2467194
			c0-1.4406128-0.0820007-2.0171051-0.5345917-2.7575073c-0.4526062-0.7411957-1.3587036-1.2765961-2.4697113-1.2765961
			c-1.1118011,0-2.0169983,0.5354004-2.4696045,1.2765961c-0.4533997,0.7404022-0.5354004,1.3168945-0.5354004,2.7575073v51.2084961
			c0,1.4405975,0.0820007,2.0169983,0.5354004,2.758194c0.4526062,0.740509,1.3578033,1.2759094,2.4696045,1.2759094
			c1.1110077,0,2.0171051-0.5354004,2.4697113-1.2759094c0.4525909-0.7411957,0.5345917-1.3175964,0.5345917-2.758194v-1.1529083
			c3.3756866,4.2810059,6.9152985,5.3518066,11.4438019,5.3518066c4.1987915,0,7.7384949-1.399704,9.879303-3.5404968
			c4.1160889-4.1162109,5.0213928-10.7028046,5.0213928-17.2067108c0-6.503891-0.905304-13.0896912-5.0213928-17.2066956
			C194.4993134,97.5601196,190.95961,96.1605072,186.7608185,96.1605072z M185.4842072,132.3023071
			c-8.8495941,0-10.1671906-7.4917908-10.1671906-15.395401c0-7.9034882,1.3175964-15.395401,10.1671906-15.395401
			c8.8503113,0,10.1679077,7.4919128,10.1679077,15.395401
			C195.6521149,124.8105164,194.3345184,132.3023071,185.4842072,132.3023071z"/>
		<path class="st2" d="M215.1421051,77.3894196c-2.2638855,0-4.0751953,1.8112946-4.0751953,4.0750885
			c0,2.2647095,1.8113098,4.0758972,4.0751953,4.0758972c2.2644958,0,4.0750122-1.8111877,4.0750122-4.0758972
			C219.2171173,79.2007141,217.406601,77.3894196,215.1421051,77.3894196z"/>
		<path class="st2" d="M215.1421051,96.3253174c-1.1117859,0-2.0170898,0.5346985-2.4696655,1.2758942
			c-0.4526367,0.7411957-0.534729,1.3175049-0.534729,2.758194v33.0958099c0,1.4405975,0.0820923,2.0169983,0.534729,2.758194
			c0.4525757,0.740509,1.3578796,1.2759094,2.4696655,1.2759094c1.1116943,0,2.0169983-0.5354004,2.4696045-1.2759094
			c0.4526062-0.7411957,0.5354004-1.3175964,0.5354004-2.758194v-33.0958099c0-1.4406891-0.0827942-2.0169983-0.5354004-2.758194
			S216.2537994,96.3253174,215.1421051,96.3253174z"/>
		<path class="st2" d="M247.8972015,96.1605072c-4.4456787,0-8.0680847,0.9880066-11.4437866,5.1869049V82.2467194
			c0-1.4406128-0.0820007-2.0171051-0.5346069-2.7575073c-0.4526062-0.7411957-1.3585815-1.2765961-2.469696-1.2765961
			c-1.1117859,0-2.0169983,0.5354004-2.4696045,1.2765961c-0.4533997,0.7404022-0.5354004,1.3168945-0.5354004,2.7575073v51.2084961
			c0,1.4405975,0.0820007,2.0169983,0.5354004,2.758194c0.4526062,0.740509,1.3578186,1.2759094,2.4696045,1.2759094
			c1.1111145,0,2.0170898-0.5354004,2.469696-1.2759094c0.4526062-0.7411957,0.5346069-1.3175964,0.5346069-2.758194v-1.1529083
			c3.3757019,4.2810059,6.9154053,5.3518066,11.4437866,5.3518066c4.198822,0,7.7385254-1.399704,9.8792877-3.5404968
			c4.1162109-4.1162109,5.0214233-10.7028046,5.0214233-17.2067108c0-6.503891-0.9052124-13.0896912-5.0214233-17.2066956
			C255.6357269,97.5601196,252.0960236,96.1605072,247.8972015,96.1605072z M246.6206207,132.3023071
			c-8.8496094,0-10.1672058-7.4917908-10.1672058-15.395401c0-7.9034882,1.3175964-15.395401,10.1672058-15.395401
			c8.8504028,0,10.167984,7.4919128,10.167984,15.395401C256.7886047,124.8105164,255.4710236,132.3023071,246.6206207,132.3023071z
			"/>
		<path class="st2" d="M287.243988,132.4671173c-0.5346985-0.3296051-1.3168945-0.4936066-2.6746826-0.4936066
			c-3.6642151,0-5.3517151-2.1819-5.3517151-5.8865051V82.2467194c0-1.4406128-0.0827942-2.0171051-0.5354004-2.7575073
			c-0.4526062-0.7411957-1.3578796-1.2765961-2.4696045-1.2765961c-1.1118774,0-2.0170898,0.5354004-2.469696,1.2765961
			c-0.4526062,0.7404022-0.5346985,1.3168945-0.5346985,2.7575073v44.0460968
			c0,6.009491,3.4160156,10.8668976,10.2903137,10.8668976h1.0708008c1.3577881,0,2.1399841-0.1647949,2.6746826-0.4936981
			c0.7001038-0.4526062,1.1118164-1.1528015,1.1118164-2.0997009
			C288.3558044,133.6200104,287.9440918,132.9198151,287.243988,132.4671173z"/>
		<path class="st2" d="M299.5087891,77.3894196c-2.2638855,0-4.0751038,1.8112946-4.0751038,4.0750885
			c0,2.2647095,1.8112183,4.0758972,4.0751038,4.0758972c2.2646179,0,4.0750122-1.8111877,4.0750122-4.0758972
			C303.5838013,79.2007141,301.773407,77.3894196,299.5087891,77.3894196z"/>
		<path class="st2" d="M299.5087891,96.3253174c-1.1117859,0-2.0170898,0.5346985-2.469696,1.2758942
			s-0.534668,1.3175049-0.534668,2.758194v33.0958099c0,1.4405975,0.0820618,2.0169983,0.534668,2.758194
			c0.4526062,0.740509,1.3579102,1.2759094,2.469696,1.2759094c1.1116943,0,2.0169983-0.5354004,2.469635-1.2759094
			c0.4525757-0.7411957,0.5353699-1.3175964,0.5353699-2.758194v-33.0958099c0-1.4406891-0.0827942-2.0169983-0.5353699-2.758194
			C301.5257874,96.8600159,300.6204834,96.3253174,299.5087891,96.3253174z"/>
		<path class="st2" d="M329.390686,96.1605072c-4.93927,0-8.8502808,1.8113098-11.6495972,4.6105042
			c-4.1980896,4.2810059-4.9802856,9.8789062-4.9802856,16.1358948c0,6.2161102,0.782196,11.8556061,4.9802856,16.1366119
			c2.7993164,2.7993011,6.7103271,4.6105957,11.6495972,4.6105957c4.9393005,0,8.8504028-1.8112946,11.6495972-4.6105957
			c4.1981201-4.2810059,4.9803162-9.9205017,4.9803162-16.1366119c0-6.2569885-0.782196-11.8548889-4.9803162-16.1358948
			C338.2410889,97.971817,334.3299866,96.1605072,329.390686,96.1605072z M336.7175903,129.3800201
			c-1.9759827,1.9759979-4.3218994,2.922287-7.3269043,2.922287s-5.3508911-0.9462891-7.3269043-2.922287
			c-2.840271-2.8404083-3.2928772-7.7805023-3.2928772-12.473114c0-4.6925964,0.4526062-9.5909882,3.2928772-12.4312897
			c1.9760132-1.9761047,4.3218994-2.9641113,7.3269043-2.9641113s5.3509216,0.9880066,7.3269043,2.9641113
			c2.8403015,2.8403015,3.2929077,7.7386932,3.2929077,12.4312897
			C340.010498,121.5995178,339.5578918,126.5396118,336.7175903,129.3800201z"/>
		<path class="st2" d="M369.1424866,101.2647095c1.1118164,0,1.6874084-0.0820923,2.1811218-0.4115906
			c0.7001953-0.4117126,0.988678-1.0700989,0.988678-1.8934021c0-0.8231049-0.2884827-1.4822998-0.988678-1.8939056
			c-0.4937134-0.3289032-1.0693054-0.4116974-2.1811218-0.4116974h-5.9690857v-8.6849976
			c0-1.4414062-0.0820007-2.0169983-0.5346069-2.7583008c-0.4526978-0.7411957-1.3586121-1.2758026-2.469696-1.2758026
			c-1.1116943,0-2.0169983,0.5346069-2.469696,1.2758026c-0.4525146,0.7413025-0.5353088,1.3168945-0.5353088,2.7583008v8.6849976
			h-2.8403015c-1.111084,0-1.6881104,0.0827942-2.1817932,0.4116974c-0.7001953,0.4116058-0.9880066,1.0708008-0.9880066,1.8939056
			c0,0.8233032,0.2878113,1.4816895,0.9880066,1.8934021c0.4936829,0.3294983,1.0707092,0.4115906,2.1817932,0.4115906h2.8403015
			v25.0281067c0,6.009491,3.4165955,10.8668976,10.2910156,10.8668976h1.0699768
			c1.3586121,0,2.1408081-0.1647949,2.675415-0.4936981c0.7001953-0.4526062,1.1117859-1.1528015,1.1117859-2.0997009
			c0-0.9463043-0.4115906-1.6464996-1.1117859-2.0991974c-0.5346069-0.3296051-1.316803-0.4936066-2.675415-0.4936066
			c-3.6634827,0-5.3516846-2.1819-5.3516846-5.8865051v-24.8222961H369.1424866z"/>
		<path class="st2" d="M398.6047974,96.1605072c-4.6105042,0-8.3970032,1.6464996-11.3609924,4.9394073V82.2467194
			c0-1.4406128-0.0828247-2.0171051-0.5354004-2.7575073c-0.4526062-0.7411957-1.3579102-1.2765961-2.469696-1.2765961
			c-1.1118164,0-2.0170288,0.5354004-2.4696045,1.2765961c-0.4526978,0.7404022-0.5346985,1.3168945-0.5346985,2.7575073v51.2084961
			c0,1.4405975,0.0820007,2.0169983,0.5346985,2.758194c0.4525757,0.740509,1.3577881,1.2759094,2.4696045,1.2759094
			c1.1117859,0,2.0170898-0.5354004,2.469696-1.2759094c0.4525757-0.7411957,0.5354004-1.3175964,0.5354004-2.758194V112.132309
			c0-7.1212921,3.9512939-10.6208038,10.1261902-10.6208038c6.1748047,0,9.879303,3.4995117,9.879303,10.6208038v21.3229065
			c0,1.4405975,0.0820007,2.0169983,0.5346985,2.758194c0.4526062,0.740509,1.3586121,1.2759094,2.4696045,1.2759094
			c1.1118164,0,2.0170898-0.5354004,2.4696045-1.2759094c0.4533997-0.7411957,0.5361938-1.3175964,0.5361938-2.758194v-22.3108978
			C413.2593994,102.0059052,407.8659973,96.1605072,398.6047974,96.1605072z"/>
		<path class="st2" d="M439.8381958,96.1605072c-10.2088928,0-16.712616,7.368103-16.712616,20.7463989
			c0,14.3254089,6.9980164,20.7472076,17.7409363,20.7472076c4.1577759,0,7.6564941-0.9060059,10.085083-2.3466949
			c1.6054688-0.9880066,4.1989136-2.7993011,4.1989136-4.6105042c0-1.3578949-1.2758179-2.592804-2.5524292-2.592804
			c-0.9052734,0-1.522644,0.3699036-2.7991943,1.4407043c-2.4287109,2.0580902-5.5559692,2.9223022-8.6848145,2.9223022
			c-7.8205872,0-12.0201721-5.186203-12.0201721-14.0368042h23.915802c0.9469604,0,1.8529663,0,2.6351929-0.782196
			c0.7821655-0.7822113,0.8231812-1.8933105,0.8231812-2.716507C456.385437,103.65242,450.128479,96.1605072,439.8381958,96.1605072
			z M429.0939026,113.9018097c0.1237793-2.8813019,0.3706055-4.3629913,1.2765808-6.5858917
			c1.4815979-3.6634979,5.0631104-6.0512085,9.4677124-6.0512085c4.4047241,0,7.944397,2.3467102,9.46698,6.0512085
			c0.9053345,2.2229004,1.152832,3.7045898,1.2759399,6.5858917H429.0939026z"/>
		<path class="st2" d="M481.7052002,96.1605072c-10.2089233,0-16.7127075,7.368103-16.7127075,20.7463989
			c0,14.3254089,6.9981079,20.7472076,17.7409058,20.7472076c4.1578979,0,7.6566162-0.9060059,10.0852051-2.3466949
			c1.6054077-0.9880066,4.1989136-2.7993011,4.1989136-4.6105042c0-1.3578949-1.2759399-2.592804-2.5524292-2.592804
			c-0.9052734,0-1.5227051,0.3699036-2.7993164,1.4407043c-2.4285889,2.0580902-5.5559692,2.9223022-8.6847534,2.9223022
			c-7.8206177,0-12.0201416-5.186203-12.0201416-14.0368042h23.9158325c0.9468994,0,1.8529663,0,2.6350708-0.782196
			c0.7822266-0.7822113,0.8233032-1.8933105,0.8233032-2.716507
			C498.2523193,103.65242,491.9954224,96.1605072,481.7052002,96.1605072z M470.9608765,113.9018097
			c0.1237183-2.8813019,0.3706055-4.3629913,1.2765503-6.5858917c1.4816895-3.6634979,5.0630493-6.0512085,9.4677734-6.0512085
			c4.4046021,0,7.9442749,2.3467102,9.46698,6.0512085c0.9052124,2.2229004,1.152832,3.7045898,1.2758179,6.5858917H470.9608765z"/>
		<path class="st2" d="M538.9174194,132.0965118l-12.5548096-19.7993927l9.4259644-10.7438049
			c1.152832-1.3177032,1.4414062-2.0171051,1.4414062-2.7584076c0-0.8230896-0.3705444-1.4405975-0.9880981-1.9759979
			c-0.4943848-0.4115906-1.1519775-0.6584015-1.729187-0.6584015c-1.0281982,0-1.6873779,0.4526062-2.84021,1.7703094
			l-17.3292847,19.7583008V82.2467194c0-1.4406128-0.0827637-2.0171051-0.5354004-2.7575073
			c-0.4526978-0.7411957-1.3579102-1.2765961-2.4697266-1.2765961c-1.1117554,0-2.0169678,0.5354004-2.4696655,1.2765961
			c-0.4526367,0.7404022-0.5346069,1.3168945-0.5346069,2.7575073v51.2084961c0,1.4405975,0.0819702,2.0169983,0.5346069,2.758194
			c0.4526978,0.740509,1.3579102,1.2759094,2.4696655,1.2759094c1.1118164,0,2.0170288-0.5354004,2.4697266-1.2759094
			c0.4526367-0.7411957,0.5354004-1.3175964,0.5354004-2.758194v-7.9855957l7.8623047-8.9333038l11.772583,18.6481018
			c0.9873047,1.5636902,1.7283936,2.3049011,3.0043335,2.3049011c0.5360718,0,1.0296631-0.1238098,1.5643921-0.452713
			c0.9469604-0.5764008,1.4002686-1.4405975,1.4002686-2.3875885
			C539.9470825,133.9078064,539.6176147,133.208313,538.9174194,132.0965118z"/>
		<path class="st2" d="M124.6261063,3.7868085c-0.5243988-2.096199-2.6506042-3.3684006-4.7453003-2.8469009
			c-2.0960999,0.5243988-3.3703918,2.6483994-2.8468018,4.7453003l18.1313095,72.5269012l-18.1313095,72.5276031
			c-0.5235901,2.0968933,0.7507019,4.2209015,2.8468018,4.7453003c0.3186188,0.0791016,0.6380005,0.1172028,0.9522095,0.1172028
			c1.7532959,0,3.3484955-1.1865082,3.7930908-2.9641113l18.3686142-73.4767914
			c0.1551971-0.6233063,0.1551971-1.2752075,0-1.8984985L124.6261063,3.7868085z"/>
		<path class="st2" d="M13.5928116,104.483017c-0.5345001-0.9615021-1.6769028-2.6569977-1.6769028-9.5267029
			c0-6.0948944-0.0056-15.2868958-0.0056-21.6423035c0-16.9722023-0.1137009-18.0137062,1.1243057-20.8150063
			c0.8958969-2.0319977,2.1691971-2.9657974,2.380394-3.1975937c0.2097015-0.2330017,0.1850052-0.4033051,0.0656052-0.5229034
			c-0.1428986-0.1456985-0.3728027-0.1572952-0.8143997-0.1572952c-0.4412003,0-2.7619019,0.4077988-6.4224014,0.4077988
			c-4.4065013,0-5.755302-0.3102036-6.7779002-0.3102036c-0.0712967,0-0.4559021-0.0086975-0.4559021,0.2870026
			c0,0.1369019,0.1152039,0.3015976,0.1659012,0.3582993c0.7401047,0.7983017,2.9689026,2.3380051,2.9746017,7.1772995
			c0.0059967,5.4743958,0.1222992,15.9611092,0.1222992,16.7696114c0.0059967,0.6947937-0.1163025,12.636795-0.1163025,21.6160889
			c0,6.8872986-0.8144989,8.2739105-1.5355988,9.3809967c-0.6771014,1.0547028-1.7013016,1.8706055-2.3758011,2.4007111
			c-0.2678986,0.2097931-0.2445984,0.4021912-0.2445984,0.4837036c0,0.2272949,0.2273026,0.3438873,0.4063034,0.3438873
			c0.3248978,0,3.8542938-0.5128021,7.8369975-0.5128021c1.8383026,0,7.2192993,0.4776001,7.3926086,0.489212
			c0.2171936,0.0116882,0.3728867-0.1339111,0.3728867-0.3377075c0-0.2449036-0.0772934-0.3089905-0.2025986-0.4313965
			C15.4398117,106.3768158,14.1710129,105.5203094,13.5928116,104.483017z"/>
		<path class="st2" d="M81.084816,75.1480103c-0.9191132-0.1672974-1.3693085-0.2037048-1.3778992-0.3638916
			c-0.0177002-0.2987061,0.9483948-0.5582123,2.2052002-1.1278076c1.7144928-0.7731934,3.8179932-2.1687927,5.2413025-3.5921936
			c1.7174835-1.7217102,3.5673828-4.6235046,3.5673828-8.3321114c0-4.2901001-0.990799-7.1596985-3.9578857-10.1287994
			c-3.2732086-3.272995-10.3044891-3.1623001-11.9300995-3.1623001c-2.1996002,0-10.0540009,0.1936035-11.3549042,0.1936035
			c-0.6322021,0-2.1426086,0.1282959-3.8630981,0.1282959c-1.7610016,0-3.6604004,0.045105-4.790802-0.0712967
			c-0.3162079-0.0322037-0.5203094,0.0886002-0.569809,0.2840958c-0.0479889,0.1965027,0.088913,0.4761047,0.1459045,0.5841064
			c0.4149017,0.7851944,0.9060059,2.2403946,0.9060059,3.7524033c0,1.5457001,0.1501007,18.3806038,0.1501007,19.8665962
			c0,1.4887085-0.0424042,29.9002075-0.0424042,30.2089996c0,0.0641022,0.0176086,0.4138031-0.1369019,0.5653076
			c-0.2738953,0.279892-2.2490997,0.1981964-2.8246002,0.1282959c-1.2350006-0.1399078-3.3386002-0.6936035-5.2481995-2.3950043
			c-1.2644958-1.1243896-3.4990005-3.3679047-11.2614975-13.6114044
			c-1.5571899-2.0510864-12.0891037-15.8895874-13.069397-17.583786c-0.0480042-0.0845032-0.0597-0.122406-0.0597-0.144104
			c0-0.0263062,0.0056992-0.080307,0.0435944-0.1370087c0.9308014-1.327301,12.3251038-11.3273964,12.9396057-11.9086037
			c1.5121994-1.4263,10.5727081-8.6966934,10.9118958-9.0403976c0.0904007-0.0858994,0.2814026-0.2798004,0.2025986-0.4981995
			c-0.0524979-0.157196-0.1485977-0.2111969-0.7690964-0.2111969c-0.626503,0-3.0009003,0.1455994-4.549202,0.1966019
			c-2.0742035,0.0655975-3.7974014,0.082901-4.2637024,0.082901c-0.4617844,0-0.6175003,0.2156982-0.8113937,0.4067001
			c-0.4048004,0.4077988-3.7378006,4.9191971-9.1348038,10.8944931c-5.0356979,5.5792122-9.112999,10.0804024-12.1210022,12.9181099
			c-0.0975876,0.0919952-0.074295,0.2870026,0.077301,0.4922943c1.6927032,2.2581024,9.4698029,13.1571045,10.9280014,15.2257996
			c5.5672989,7.8834076,11.1246033,14.9571991,12.1457977,16.1461029c1.0399017,1.2118073,1.947403,1.8878021,2.9235001,2.144104
			c1.1477051,0.3087921,1.9766998,0.3961945,3.1435013,0.3961945c1.4624023,0,9.4217987-0.1631927,10.8856964-0.2097931
			c1.473999-0.040802,5.7729034,0.0349884,7.1551056,0.0349884c0.2650909,0,0.5330048,0.0059052,0.7153015-0.1804962
			c0.2082062-0.2097931,0.1734009-0.5769958,0.1734009-0.8448944c0-1.1421051-0.2536011-31.9425964-0.2536011-33.0557098
			c0-1.1156921,0.0715942-18.4810982,0.0715942-19.7847939c0-0.1940002-0.0090027-0.6979065,0.227005-0.9338074
			c0.2565918-0.2565918,0.8318024-0.2359924,0.9396973-0.2389984c0.5957947-0.0056915,1.5205994-0.0450897,4.116394-0.0450897
			c4.137207,0,6.5333099,0.1470947,9.1407166,1.3633881c4.0220032,1.8778076,5.3970032,5.4509125,5.3970032,9.1147003
			c0,6.059803-4.7195129,9.5589027-8.2944183,10.4184151c-0.920578,0.2198944-2.5112915,0.5387878-4.1934967,0.6772003
			c-0.1313019,0.0115967-0.2987061,0.0975952-0.3759918,0.2082977c-0.1019135,0.134201-0.1166077,0.3424988-0.1166077,0.662796
			c0,0.5695953-0.0334015,1.2077026-0.0334015,2.4284973c0,0.3874969-0.0146027,0.5724945,0.1166992,0.7238007
			c0.1470032,0.1676025,0.3012085,0.201004,0.7106018,0.201004c5.1902008,0,10.2169952,1.1100922,12.8070984,3.7003021
			c2.8988953,2.9015961,3.6417084,6.5608978,3.6417084,8.6994019c0,5.9200897-2.9468994,9.0256958-3.7130127,9.7888947
			c-4.3468933,4.3470001-10.2957916,3.7993011-10.697998,3.7993011c-0.608902,0-0.8564911,0.227005-0.8417969,0.5765991
			c0.0232086,0.6295013,0.032196,1.1421051,0.032196,2.0278015c0,0.8740997,0.2867126,0.9904938,0.4603119,1.0429993
			c0.5098877,0.1459045,1.9984894,0.0818024,3.5614014,0.0059052c6.3101959-0.3203125,9.8921967-1.6665039,13.4843903-4.2479095
			c3.0853119-2.2198944,5.6026001-7.4933014,5.6739044-12.0789948c0.102005-6.5027008-2.1954041-9.3986053-3.6184082-10.9747009
			C88.0782089,76.3643188,83.3587112,75.5648193,81.084816,75.1480103z"/>
	</g>
</g>
</svg>
